<svg enable-background="new 0 0 588 560" viewBox="0 0 588 560" xmlns="http://www.w3.org/2000/svg" xmlns:xlink="http://www.w3.org/1999/xlink"><clipPath id="a"><path d="m11 10.48h566v539.05h-566z"/></clipPath><path d="m0 0h588v560h-588z" fill="#1e1f22"/><path clip-path="url(#a)" d="m317.1 68.23v48.13" fill="none" stroke="#bae67e" stroke-width=".75"/><path clip-path="url(#a)" d="m317.1 116.36-2.4-4.81h4.81z" fill="#bae67e"/><path clip-path="url(#a)" d="m307.48 68.23v28.88h-98.19v346.53h-137.65v38.5" fill="none" stroke="#bae67e" stroke-width=".75"/><path clip-path="url(#a)" d="m71.64 482.14-2.4-4.81h4.81z" fill="#bae67e"/><path clip-path="url(#a)" d="m297.85 68.23v19.25h-98.18v269.53h-118.4v19.25" fill="none" stroke="#bae67e" stroke-width=".75"/><path clip-path="url(#a)" d="m81.27 376.26-2.41-4.81h4.82z" fill="#bae67e"/><path clip-path="url(#a)" d="m278.6 68.23v38.5h-202.14v96.26" fill="none" stroke="#bae67e" stroke-width=".75"/><path clip-path="url(#a)" d="m76.46 202.99-2.41-4.81h4.81z" fill="#bae67e"/><path clip-path="url(#a)" d="m288.22 68.23v9.63h-98.18v182.89h-103.96v28.88" fill="none" stroke="#bae67e" stroke-width=".75"/><path clip-path="url(#a)" d="m86.08 289.63-2.4-4.82h4.81z" fill="#bae67e"/><path clip-path="url(#a)" d="m307.48 251.12v9.63h98.18v-154.02h-69.31v9.63" fill="none" stroke="#bae67e" stroke-width=".75"/><path clip-path="url(#a)" d="m336.35 116.36-2.4-4.81h4.81z" fill="#bae67e"/><path clip-path="url(#a)" d="m507.69 251.12v38.51" fill="none" stroke="#bae67e" stroke-width=".75"/><path clip-path="url(#a)" d="m507.69 289.63-2.4-4.82h4.81z" fill="#bae67e"/><path clip-path="url(#a)" d="m498.07 251.12v19.25h-73.16v192.52h-343.64v19.25" fill="none" stroke="#bae67e" stroke-width=".75"/><path clip-path="url(#a)" d="m81.27 482.14-2.41-4.81h4.82z" fill="#bae67e"/><path clip-path="url(#a)" d="m493.26 424.39v9.62h-58.72v-154.01h53.9v9.63" fill="none" stroke="#bae67e" stroke-width=".75"/><path clip-path="url(#a)" d="m488.44 289.63-2.4-4.82h4.81z" fill="#bae67e"/><path clip-path="url(#a)" d="m502.88 424.39v48.13h-402.36v9.62" fill="none" stroke="#bae67e" stroke-width=".75"/><path clip-path="url(#a)" d="m100.52 482.14-2.41-4.81h4.82z" fill="#bae67e"/><path clip-path="url(#a)" d="m507.69 337.76v19.25h59.68v-259.9h-240.64v19.25" fill="none" stroke="#bae67e" stroke-width=".75"/><path clip-path="url(#a)" d="m326.73 116.36-2.41-4.81h4.81z" fill="#bae67e"/><path clip-path="url(#a)" d="m488.44 337.76v28.87h-82.78v86.64h-314.77v28.87" fill="none" stroke="#bae67e" stroke-width=".75"/><path clip-path="url(#a)" d="m90.89 482.14-2.4-4.81h4.81z" fill="#bae67e"/><path clip-path="url(#a)" d="m498.07 337.76v38.5" fill="none" stroke="#bae67e" stroke-width=".75"/><path clip-path="url(#a)" d="m498.07 376.26-2.41-4.81h4.81z" fill="#bae67e"/><path clip-path="url(#a)" d="m517.32 337.76v9.62h40.43v-154.01h-54.87v9.62" fill="none" stroke="#bae67e" stroke-width=".75"/><path clip-path="url(#a)" d="m502.88 202.99-2.41-4.81h4.82z" fill="#bae67e"/><path clip-path="url(#a)" d="m71.64 337.76v38.5" fill="none" stroke="#bae67e" stroke-width=".75"/><path clip-path="url(#a)" d="m71.64 376.26-2.4-4.81h4.81z" fill="#bae67e"/><path clip-path="url(#a)" d="m100.52 337.76v9.62h79.89v-154.01h-94.33v9.62" fill="none" stroke="#bae67e" stroke-width=".75"/><path clip-path="url(#a)" d="m86.08 202.99-2.4-4.81h4.81z" fill="#bae67e"/><path clip-path="url(#a)" d="m76.46 251.12v38.51" fill="none" stroke="#bae67e" stroke-width=".75"/><path clip-path="url(#a)" d="m76.46 289.63-2.41-4.82h4.81z" fill="#bae67e"/><path clip-path="url(#a)" d="m62.02 424.39v57.75" fill="none" stroke="#bae67e" stroke-width=".75"/><path clip-path="url(#a)" d="m62.02 482.14-2.41-4.81h4.81z" fill="#bae67e"/><path clip-path="url(#a)" d="m110.15 424.39v9.62h60.64v-154.01h-75.08v9.63" fill="none" stroke="#bae67e" stroke-width=".75"/><path clip-path="url(#a)" d="m95.71 289.63-2.41-4.82h4.81z" fill="#bae67e"/><path clip-path="url(#a)" d="m86.08 530.27v9.63h75.08v-173.27h-70.27v9.63" fill="none" stroke="#bae67e" stroke-width=".75"/><path clip-path="url(#a)" d="m90.89 376.26-2.4-4.81h4.81z" fill="#bae67e"/><path clip-path="url(#a)" d="m293.04 164.49v19.25h-197.33v19.25" fill="none" stroke="#bae67e" stroke-width=".75"/><path clip-path="url(#a)" d="m95.71 202.99-2.41-4.81h4.81z" fill="#bae67e"/><path clip-path="url(#a)" d="m302.66 164.49v38.5" fill="none" stroke="#bae67e" stroke-width=".75"/><path clip-path="url(#a)" d="m302.66 202.99-2.4-4.81h4.81z" fill="#bae67e"/><path clip-path="url(#a)" d="m321.91 164.49v28.88h171.35v9.62" fill="none" stroke="#bae67e" stroke-width=".75"/><path clip-path="url(#a)" d="m493.26 202.99-2.41-4.81h4.81z" fill="#bae67e"/><path clip-path="url(#a)" d="m312.29 164.49v19.25h103v163.64h63.53v28.88" fill="none" stroke="#bae67e" stroke-width=".75"/><path clip-path="url(#a)" d="m478.82 376.26-2.41-4.81h4.81z" fill="#bae67e"/><path clip-path="url(#a)" d="m249.72 20.1h115.51v48.13h-115.51z" fill="#1c1f24"/><path clip-path="url(#a)" d="m249.72 20.1h115.51v48.13h-115.51z" fill="none" stroke="#646464" stroke-width=".75"/><path clip-path="url(#a)" d="m259.05 47.46c-.54 0-1.01-.1-1.41-.31-.4-.2-.72-.49-.94-.87-.22-.37-.33-.81-.33-1.32v-3.68c0-.51.11-.95.33-1.33.22-.37.53-.66.94-.86.4-.2.87-.31 1.41-.31s1.02.1 1.41.31c.4.21.71.49.93.86s.33.81.33 1.32h-1.44c0-.4-.11-.7-.32-.91s-.52-.32-.91-.32-.7.11-.91.32c-.22.21-.33.51-.33.91v3.68c0 .39.11.69.33.91.22.21.52.32.91.32s.69-.11.91-.32c.21-.21.32-.52.32-.91h1.44c0 .5-.11.94-.33 1.31s-.53.66-.93.87-.86.33-1.41.33z" fill="#ed9366"/><path clip-path="url(#a)" d="m263.83 47.34v-8.43h1.44v7.12h3.58v1.31z" fill="#ed9366"/><path clip-path="url(#a)" d="m272.82 46.19c.39 0 .69-.11.89-.32s.3-.52.3-.91v-3.68c0-.4-.1-.7-.3-.91s-.5-.32-.89-.32-.69.11-.89.32-.3.51-.3.91v3.68c0 .39.1.69.31.91.2.21.5.32.88.32zm0 1.27c-.81 0-1.45-.23-1.93-.69-.47-.46-.71-1.1-.71-1.92v-3.45c0-.82.24-1.46.71-1.92s1.12-.69 1.93-.69 1.45.23 1.93.69.71 1.1.71 1.92v3.45c0 .82-.24 1.46-.71 1.92-.48.45-1.12.69-1.93.69z" fill="#ed9366"/><path clip-path="url(#a)" d="m279.85 47.46c-.54 0-1.01-.1-1.41-.31-.4-.2-.72-.49-.94-.87-.22-.37-.33-.81-.33-1.32v-3.68c0-.51.11-.95.33-1.33.22-.37.53-.66.94-.86.4-.2.87-.31 1.41-.31s1.02.1 1.41.31c.4.21.71.49.93.86s.33.81.33 1.32h-1.44c0-.4-.11-.7-.32-.91s-.52-.32-.91-.32-.7.11-.91.32c-.22.21-.33.51-.33.91v3.68c0 .39.11.69.33.91.22.21.52.32.91.32s.69-.11.91-.32c.21-.21.32-.52.32-.91h1.44c0 .5-.11.94-.33 1.31s-.53.66-.93.87-.87.33-1.41.33z" fill="#ed9366"/><path clip-path="url(#a)" d="m284.1 47.34v-8.43h1.44v3.44h1l1.6-3.44h1.56l-1.89 4.02 1.98 4.41h-1.6l-1.66-3.73h-.99v3.73z" fill="#ed9366"/><path clip-path="url(#a)" d="m300.6 47.46c-.54 0-1.01-.1-1.42-.31-.4-.2-.72-.49-.94-.87-.22-.37-.33-.81-.33-1.32v-3.68c0-.51.11-.95.33-1.33.22-.37.53-.66.94-.86.4-.2.88-.31 1.42-.31s1.01.1 1.41.31.71.49.93.86.33.81.33 1.32h-1.44c0-.4-.11-.7-.32-.91-.22-.21-.52-.32-.91-.32s-.69.1-.91.31-.33.51-.33.91v3.68c0 .39.11.69.33.91.22.21.52.32.91.32s.69-.11.91-.32.32-.52.32-.91v-.94h-1.44v-1.25h2.88v2.19c0 .5-.11.94-.33 1.32-.22.37-.53.66-.93.87-.4.22-.87.33-1.41.33z" fill="#ed9366"/><path clip-path="url(#a)" d="m305.03 47.34v-8.43h5.05v1.27h-3.63v2.19h3.23v1.22h-3.23v2.48h3.63v1.27z" fill="#ed9366"/><path clip-path="url(#a)" d="m311.78 47.34v-8.43h1.76l2.35 6.81c-.02-.25-.04-.54-.07-.87-.03-.34-.05-.68-.06-1.02-.02-.35-.02-.66-.02-.92v-3.99h1.31v8.43h-1.76l-2.33-6.81c.02.22.04.49.06.8s.04.64.05.97c.02.33.02.64.02.91v4.13h-1.31z" fill="#ed9366"/><path clip-path="url(#a)" d="m318.89 47.34v-8.43h5.06v1.27h-3.64v2.19h3.23v1.22h-3.23v2.48h3.64v1.27z" fill="#ed9366"/><path clip-path="url(#a)" d="m327.12 42.72h1.23c.4 0 .72-.11.96-.34.23-.23.35-.53.35-.92 0-.4-.12-.71-.35-.94s-.55-.34-.96-.34h-1.23zm-1.43 4.62v-8.43h2.66c.56 0 1.05.1 1.46.31s.73.5.96.87c.23.38.34.82.34 1.32 0 .56-.14 1.05-.42 1.47s-.65.72-1.12.9l1.65 3.56h-1.58l-1.48-3.35h-1.05v3.35z" fill="#ed9366"/><path clip-path="url(#a)" d="m334.34 44.12h1.71l-.5-2.27c-.08-.38-.16-.72-.22-1.02-.06-.31-.11-.53-.13-.66-.02.14-.07.36-.12.66-.06.3-.13.64-.22 1.01zm-2.2 3.22 2.12-8.43h1.86l2.13 8.43h-1.47l-.47-2.04h-2.24l-.47 2.04z" fill="#ed9366"/><path clip-path="url(#a)" d="m341.41 47.34v-7.13h-2.21v-1.3h5.86v1.3h-2.21v7.13z" fill="#ed9366"/><path clip-path="url(#a)" d="m349.06 46.19c.39 0 .69-.11.89-.32s.3-.52.3-.91v-3.68c0-.4-.1-.7-.3-.91s-.5-.32-.89-.32-.69.11-.89.32-.3.51-.3.91v3.68c0 .39.1.69.31.91.2.21.49.32.88.32zm0 1.27c-.81 0-1.45-.23-1.93-.69-.47-.46-.71-1.1-.71-1.92v-3.45c0-.82.24-1.46.71-1.92.48-.46 1.12-.69 1.93-.69s1.45.23 1.93.69.71 1.1.71 1.92v3.45c0 .82-.24 1.46-.71 1.92-.48.45-1.12.69-1.93.69z" fill="#ed9366"/><path clip-path="url(#a)" d="m354.84 42.72h1.23c.4 0 .72-.11.96-.34.23-.23.35-.53.35-.92 0-.4-.12-.71-.35-.94s-.55-.34-.96-.34h-1.23zm-1.42 4.62v-8.43h2.66c.56 0 1.05.1 1.46.31s.73.5.96.87.34.82.34 1.32c0 .56-.14 1.05-.42 1.47s-.65.72-1.12.9l1.65 3.56h-1.58l-1.48-3.35h-1.05v3.35z" fill="#ed9366"/><path clip-path="url(#a)" d="m230.47 202.99h154.01v48.13h-154.01z" fill="#1c1f24"/><path clip-path="url(#a)" d="m230.47 202.99h154.01v48.13h-154.01z" fill="none" stroke="#646464" stroke-width=".75"/><path clip-path="url(#a)" d="m239.21 230.23v-1.3h1.7v-5.83h-1.7v-1.3h4.85v1.3h-1.7v5.83h1.7v1.3z" fill="#ed9366"/><path clip-path="url(#a)" d="m245.94 230.23v-8.43h1.76l2.35 6.81c-.02-.25-.04-.54-.07-.87-.03-.34-.05-.68-.06-1.02-.02-.35-.02-.66-.02-.92v-3.99h1.31v8.43h-1.76l-2.33-6.81c.02.22.04.49.06.8s.04.64.05.97c.02.33.02.64.02.91v4.13h-1.31z" fill="#ed9366"/><path clip-path="url(#a)" d="m254.77 230.23v-7.13h-2.2v-1.3h5.86v1.3h-2.21v7.13z" fill="#ed9366"/><path clip-path="url(#a)" d="m259.98 230.23v-8.43h5.06v1.27h-3.64v2.19h3.23v1.22h-3.23v2.48h3.64v1.27z" fill="#ed9366"/><path clip-path="url(#a)" d="m268.21 225.61h1.23c.4 0 .72-.11.96-.34.23-.23.35-.53.35-.92 0-.4-.12-.71-.35-.94s-.55-.34-.96-.34h-1.23zm-1.43 4.62v-8.43h2.66c.56 0 1.05.1 1.46.31s.73.5.96.87c.23.38.34.82.34 1.32 0 .56-.14 1.05-.42 1.47s-.65.72-1.12.9l1.65 3.56h-1.58l-1.48-3.35h-1.05v3.35z" fill="#ed9366"/><path clip-path="url(#a)" d="m275.14 225.61h1.23c.4 0 .72-.11.96-.34.23-.23.35-.53.35-.92 0-.4-.12-.71-.35-.94s-.55-.34-.96-.34h-1.23zm-1.43 4.62v-8.43h2.66c.56 0 1.05.1 1.46.31s.73.5.96.87c.23.38.34.82.34 1.32 0 .56-.14 1.05-.42 1.47s-.65.72-1.12.9l1.65 3.56h-1.58l-1.48-3.35h-1.05v3.35z" fill="#ed9366"/><path clip-path="url(#a)" d="m283.22 230.35c-.83 0-1.47-.23-1.93-.68s-.69-1.07-.69-1.84v-6.03h1.44v6.02c0 .4.1.71.3.93s.49.33.88.33c.38 0 .67-.11.88-.33.2-.22.31-.53.31-.93v-6.02h1.44v6.03c0 .78-.23 1.39-.69 1.84s-1.11.68-1.94.68z" fill="#ed9366"/><path clip-path="url(#a)" d="m289.02 225.73h1.36c.4 0 .73-.12.97-.37s.36-.57.36-.96c0-.4-.12-.72-.36-.97s-.57-.37-.97-.37h-1.36zm-1.45 4.5v-8.43h2.81c.56 0 1.06.11 1.47.32.42.21.74.52.97.9.23.39.35.85.35 1.37s-.12.97-.35 1.36-.56.69-.97.91c-.42.22-.91.32-1.47.32h-1.36v3.24h-1.45z" fill="#ed9366"/><path clip-path="url(#a)" d="m296.36 230.23v-7.13h-2.21v-1.3h5.86v1.3h-2.21v7.13z" fill="#ed9366"/><path clip-path="url(#a)" d="m311.03 230.35c-.54 0-1.01-.1-1.41-.31-.4-.2-.72-.49-.94-.87-.22-.37-.33-.81-.33-1.32v-3.68c0-.51.11-.95.33-1.33.22-.37.53-.66.94-.86.4-.2.87-.31 1.41-.31s1.02.1 1.41.31c.4.21.71.49.93.86s.33.81.33 1.32h-1.44c0-.4-.11-.7-.32-.91s-.52-.32-.91-.32-.7.11-.91.32c-.22.21-.33.51-.33.91v3.68c0 .39.11.69.33.91.22.21.52.32.91.32s.69-.11.91-.32c.21-.21.32-.52.32-.91h1.44c0 .5-.11.94-.33 1.31s-.53.66-.93.87c-.39.22-.86.33-1.41.33z" fill="#ed9366"/><path clip-path="url(#a)" d="m317.87 229.08c.39 0 .69-.11.89-.32s.3-.52.3-.91v-3.68c0-.4-.1-.7-.3-.91s-.5-.32-.89-.32-.69.11-.89.32-.3.51-.3.91v3.68c0 .39.1.69.31.91.2.21.49.32.88.32zm0 1.27c-.81 0-1.45-.23-1.93-.69s-.71-1.1-.71-1.92v-3.45c0-.82.24-1.46.71-1.92s1.12-.69 1.93-.69 1.45.23 1.93.69.71 1.1.71 1.92v3.45c0 .82-.24 1.46-.71 1.92-.48.46-1.12.69-1.93.69z" fill="#ed9366"/><path clip-path="url(#a)" d="m322.17 230.23v-8.43h1.76l2.35 6.81c-.02-.25-.04-.54-.07-.87-.03-.34-.05-.68-.06-1.02-.02-.35-.02-.66-.02-.92v-3.99h1.31v8.43h-1.76l-2.33-6.81c.02.22.04.49.06.8s.04.64.05.97.02.64.02.91v4.13h-1.31z" fill="#ed9366"/><path clip-path="url(#a)" d="m331.01 230.23v-7.13h-2.21v-1.3h5.86v1.3h-2.2v7.13z" fill="#ed9366"/><path clip-path="url(#a)" d="m337.52 225.61h1.23c.4 0 .72-.11.96-.34.23-.23.35-.53.35-.92 0-.4-.12-.71-.35-.94s-.55-.34-.96-.34h-1.23zm-1.43 4.62v-8.43h2.66c.56 0 1.05.1 1.46.31s.73.5.96.87.34.82.34 1.32c0 .56-.14 1.05-.42 1.47s-.65.72-1.12.9l1.65 3.56h-1.58l-1.48-3.35h-1.05v3.35z" fill="#ed9366"/><path clip-path="url(#a)" d="m345.59 229.08c.39 0 .69-.11.89-.32s.3-.52.3-.91v-3.68c0-.4-.1-.7-.3-.91s-.5-.32-.89-.32-.69.11-.89.32-.3.51-.3.91v3.68c0 .39.1.69.31.91.2.21.5.32.88.32zm0 1.27c-.81 0-1.45-.23-1.93-.69-.47-.46-.71-1.1-.71-1.92v-3.45c0-.82.24-1.46.71-1.92.48-.46 1.12-.69 1.93-.69s1.45.23 1.93.69c.47.46.71 1.1.71 1.92v3.45c0 .82-.24 1.46-.71 1.92s-1.12.69-1.93.69z" fill="#ed9366"/><path clip-path="url(#a)" d="m350.46 230.23v-8.43h1.45v7.13h3.57v1.3z" fill="#ed9366"/><path clip-path="url(#a)" d="m357.39 230.23v-8.43h1.45v7.13h3.57v1.3z" fill="#ed9366"/><path clip-path="url(#a)" d="m363.94 230.23v-8.43h5.06v1.27h-3.64v2.19h3.23v1.22h-3.23v2.48h3.64v1.27z" fill="#ed9366"/><path clip-path="url(#a)" d="m372.17 225.61h1.23c.4 0 .72-.11.96-.34.23-.23.35-.53.35-.92 0-.4-.12-.71-.35-.94s-.55-.34-.96-.34h-1.23zm-1.43 4.62v-8.43h2.66c.56 0 1.05.1 1.46.31s.73.5.96.87c.23.38.34.82.34 1.32 0 .56-.14 1.05-.42 1.47s-.65.72-1.12.9l1.65 3.56h-1.58l-1.48-3.35h-1.05v3.35z" fill="#ed9366"/><path clip-path="url(#a)" d="m449.94 202.99h96.26v48.13h-96.26z" fill="#1c1f24"/><path clip-path="url(#a)" d="m449.94 202.99h96.26v48.13h-96.26z" fill="none" stroke="#646464" stroke-width=".75"/><path clip-path="url(#a)" d="m465.73 228.94h1.06c.41 0 .74-.12.99-.37.25-.24.37-.57.37-.98v-3.16c0-.41-.12-.73-.37-.97s-.58-.36-.99-.36h-1.06zm-1.45 1.29v-8.43h2.51c.57 0 1.06.11 1.48.33s.75.52.98.92c.23.39.35.86.35 1.39v3.16c0 .53-.12.99-.35 1.39s-.56.7-.98.92-.91.33-1.48.33h-2.51z" fill="#ed9366"/><path clip-path="url(#a)" d="m470.97 230.23v-8.43h1.87l.95 3.62.97-3.62h1.89v8.43h-1.34v-3.55c0-.49.01-.99.04-1.51s.06-1.02.1-1.51.08-.94.12-1.33l-1.19 4.24h-1.18l-1.15-4.14c.05.35.1.75.14 1.2s.07.93.1 1.44.04 1.05.04 1.61v3.55z" fill="#ed9366"/><path clip-path="url(#a)" d="m479.88 227.01h1.71l-.5-2.27c-.08-.38-.16-.72-.22-1.02-.06-.31-.11-.53-.13-.66-.02.14-.07.36-.12.66-.06.3-.13.64-.22 1.01zm-2.2 3.22 2.12-8.43h1.86l2.13 8.43h-1.47l-.47-2.04h-2.24l-.47 2.04z" fill="#ed9366"/><path clip-path="url(#a)" d="m492.16 230.23v-8.43h5.05v1.27h-3.63v2.19h3.23v1.22h-3.23v2.48h3.63v1.27z" fill="#ed9366"/><path clip-path="url(#a)" d="m498.9 230.23v-8.43h1.76l2.35 6.81c-.02-.25-.04-.54-.07-.87-.03-.34-.05-.68-.06-1.02-.02-.35-.02-.66-.02-.92v-3.99h1.31v8.43h-1.76l-2.33-6.81c.02.22.04.49.06.8s.04.64.05.97.02.64.02.91v4.13h-1.31z" fill="#ed9366"/><path clip-path="url(#a)" d="m508.51 230.35c-.54 0-1.01-.1-1.42-.31-.4-.2-.72-.49-.94-.87-.22-.37-.33-.81-.33-1.32v-3.68c0-.51.11-.95.33-1.33.22-.37.53-.66.94-.86.4-.2.88-.31 1.42-.31s1.01.1 1.41.31.71.49.93.86.33.81.33 1.32h-1.44c0-.4-.11-.7-.32-.91-.22-.21-.52-.32-.91-.32s-.69.1-.91.31-.33.51-.33.91v3.68c0 .39.11.69.33.91.22.21.52.32.91.32s.69-.11.91-.32.32-.52.32-.91v-.94h-1.44v-1.25h2.88v2.19c0 .5-.11.94-.33 1.32-.22.37-.53.66-.93.87-.39.22-.86.33-1.41.33z" fill="#ed9366"/><path clip-path="url(#a)" d="m512.97 230.23v-1.3h1.7v-5.83h-1.7v-1.3h4.85v1.3h-1.7v5.83h1.7v1.3z" fill="#ed9366"/><path clip-path="url(#a)" d="m519.7 230.23v-8.43h1.76l2.35 6.81c-.02-.25-.04-.54-.07-.87-.03-.34-.05-.68-.06-1.02-.02-.35-.02-.66-.02-.92v-3.99h1.31v8.43h-1.76l-2.33-6.81c.02.22.04.49.06.8s.04.64.05.97.02.64.02.91v4.13h-1.31z" fill="#ed9366"/><path clip-path="url(#a)" d="m526.81 230.23v-8.43h5.05v1.27h-3.63v2.19h3.23v1.22h-3.23v2.48h3.63v1.27z" fill="#ed9366"/><path clip-path="url(#a)" d="m444.16 376.26h107.81v48.13h-107.81z" fill="#1c1f24"/><path clip-path="url(#a)" d="m444.16 376.26h107.81v48.13h-107.81z" fill="none" stroke="#646464" stroke-width=".75"/><path clip-path="url(#a)" d="m450.59 403.5v-1.31h1.7v-5.82h-1.7v-1.31h4.84v1.31h-1.69v5.82h1.69v1.31z" fill="#ed9366"/><path clip-path="url(#a)" d="m457.18 404.77 4.03-10.86h1.5l-4.03 10.86z" fill="#ed9366"/><path clip-path="url(#a)" d="m466.87 402.35c.39 0 .69-.11.89-.32s.3-.52.3-.91v-3.68c0-.4-.1-.7-.3-.91s-.5-.32-.89-.32-.69.11-.89.32-.3.51-.3.91v3.68c0 .39.1.69.31.91.2.21.5.32.88.32zm0 1.26c-.81 0-1.45-.23-1.93-.69-.47-.46-.71-1.1-.71-1.92v-3.45c0-.82.24-1.46.71-1.92.48-.46 1.12-.69 1.93-.69s1.45.23 1.93.69.71 1.1.71 1.92v3.45c0 .82-.24 1.46-.71 1.92-.48.46-1.12.69-1.93.69z" fill="#ed9366"/><path clip-path="url(#a)" d="m480.83 403.61c-.54 0-1.01-.1-1.41-.31-.4-.2-.72-.49-.94-.87-.22-.37-.33-.81-.33-1.32v-3.68c0-.51.11-.95.33-1.33.22-.37.53-.66.94-.86.4-.2.87-.31 1.41-.31s1.02.1 1.41.31c.4.21.71.49.93.86s.33.81.33 1.32h-1.44c0-.4-.11-.7-.32-.91s-.52-.32-.91-.32-.7.11-.91.32c-.22.21-.33.51-.33.91v3.68c0 .39.11.69.33.91.22.21.52.32.91.32s.69-.11.91-.32c.21-.21.32-.52.32-.91h1.44c0 .5-.11.94-.33 1.31s-.53.66-.93.87c-.4.23-.87.33-1.41.33z" fill="#ed9366"/><path clip-path="url(#a)" d="m487.67 402.35c.39 0 .69-.11.89-.32s.3-.52.3-.91v-3.68c0-.4-.1-.7-.3-.91s-.5-.32-.89-.32-.69.11-.89.32-.3.51-.3.91v3.68c0 .39.1.69.31.91.19.21.49.32.88.32zm0 1.26c-.81 0-1.45-.23-1.93-.69-.47-.46-.71-1.1-.71-1.92v-3.45c0-.82.24-1.46.71-1.92s1.12-.69 1.93-.69 1.45.23 1.93.69c.47.46.71 1.1.71 1.92v3.45c0 .82-.24 1.46-.71 1.92-.48.46-1.13.69-1.93.69z" fill="#ed9366"/><path clip-path="url(#a)" d="m491.97 403.5v-8.43h1.76l2.35 6.81c-.02-.25-.04-.54-.07-.87-.03-.34-.05-.68-.06-1.02-.02-.35-.02-.66-.02-.92v-3.99h1.31v8.43h-1.76l-2.33-6.81c.02.22.04.49.06.8s.04.64.05.97c.02.33.02.64.02.91v4.13h-1.31z" fill="#ed9366"/><path clip-path="url(#a)" d="m500.8 403.5v-7.13h-2.2v-1.31h5.86v1.31h-2.21v7.13z" fill="#ed9366"/><path clip-path="url(#a)" d="m507.31 398.88h1.23c.4 0 .72-.11.96-.34s.35-.53.35-.92c0-.4-.12-.71-.35-.94s-.55-.34-.96-.34h-1.23zm-1.43 4.62v-8.43h2.66c.56 0 1.05.1 1.46.31s.73.5.96.87c.23.38.34.82.34 1.32 0 .56-.14 1.05-.42 1.47s-.65.72-1.12.9l1.65 3.56h-1.58l-1.48-3.35h-1.05v3.35z" fill="#ed9366"/><path clip-path="url(#a)" d="m515.39 402.35c.39 0 .69-.11.89-.32s.3-.52.3-.91v-3.68c0-.4-.1-.7-.3-.91s-.5-.32-.89-.32-.69.11-.89.32-.3.51-.3.91v3.68c0 .39.1.69.31.91.19.21.49.32.88.32zm0 1.26c-.81 0-1.45-.23-1.93-.69-.47-.46-.71-1.1-.71-1.92v-3.45c0-.82.24-1.46.71-1.92.48-.46 1.12-.69 1.93-.69s1.45.23 1.93.69c.47.46.71 1.1.71 1.92v3.45c0 .82-.24 1.46-.71 1.92-.48.46-1.12.69-1.93.69z" fill="#ed9366"/><path clip-path="url(#a)" d="m520.25 403.5v-8.44h1.45v7.13h3.57v1.31z" fill="#ed9366"/><path clip-path="url(#a)" d="m527.18 403.5v-8.44h1.45v7.13h3.58v1.31z" fill="#ed9366"/><path clip-path="url(#a)" d="m533.74 403.5v-8.44h5.05v1.28h-3.63v2.19h3.22v1.22h-3.22v2.48h3.63v1.27z" fill="#ed9366"/><path clip-path="url(#a)" d="m541.96 398.88h1.23c.4 0 .72-.11.96-.34.23-.23.35-.53.35-.92 0-.4-.12-.71-.35-.94s-.55-.34-.96-.34h-1.23zm-1.42 4.62v-8.43h2.66c.56 0 1.05.1 1.46.31s.73.5.96.87.34.82.34 1.32c0 .56-.14 1.05-.42 1.47s-.65.72-1.12.9l1.65 3.56h-1.58l-1.48-3.35h-1.05v3.35z" fill="#ed9366"/><path clip-path="url(#a)" d="m448.01 289.63h100.11v48.13h-100.11z" fill="#1c1f24"/><path clip-path="url(#a)" d="m448.01 289.63h100.11v48.13h-100.11z" fill="none" stroke="#646464" stroke-width=".75"/><path clip-path="url(#a)" d="m455.3 311.91h1.16c.38 0 .69-.1.9-.31.22-.2.33-.48.33-.83s-.11-.63-.33-.83-.52-.3-.9-.3h-1.17v2.27zm0 3.75h1.23c.42 0 .75-.11 1-.34.24-.22.36-.53.36-.93s-.12-.72-.36-.96-.58-.36-1-.36h-1.23zm-1.4 1.2v-8.43h2.58c.54 0 1.01.09 1.41.27s.71.43.92.75c.22.32.33.71.33 1.16 0 .3-.06.58-.18.84-.12.25-.29.46-.51.63s-.47.27-.75.32v.03c.32.03.61.15.85.34.25.19.44.43.58.73.14.29.21.62.21.98 0 .48-.11.9-.34 1.26-.22.36-.54.64-.95.84s-.89.3-1.44.3h-2.71z" fill="#ed9366"/><path clip-path="url(#a)" d="m463.4 316.98c-.83 0-1.47-.23-1.93-.68s-.69-1.07-.69-1.84v-6.03h1.44v6.02c0 .4.1.71.3.93s.49.33.88.33c.38 0 .67-.11.88-.33.2-.22.31-.53.31-.93v-6.02h1.44v6.03c0 .78-.23 1.39-.69 1.84s-1.11.68-1.94.68z" fill="#ed9366"/><path clip-path="url(#a)" d="m470.37 316.98c-.57 0-1.07-.1-1.5-.3s-.76-.49-.99-.86-.35-.82-.35-1.33h1.42c0 .38.13.68.39.9s.6.33 1.03.33c.42 0 .75-.11.99-.33s.36-.51.36-.87c0-.28-.08-.53-.23-.74-.16-.21-.38-.36-.68-.43l-1.13-.29c-.61-.15-1.09-.44-1.44-.87-.35-.42-.53-.93-.53-1.51 0-.48.11-.89.32-1.25.21-.35.51-.63.9-.82s.85-.29 1.37-.29c.53 0 .99.1 1.39.29.39.19.7.47.92.82s.33.76.33 1.23h-1.42c0-.33-.11-.6-.33-.79-.22-.2-.52-.3-.88-.3s-.65.1-.87.29c-.21.2-.32.45-.32.77 0 .26.07.47.22.65s.36.29.63.37l1.17.3c.62.15 1.11.46 1.47.92s.54 1.02.54 1.66c0 .5-.11.93-.34 1.3s-.55.66-.96.86c-.43.19-.92.29-1.48.29z" fill="#ed9366"/><path clip-path="url(#a)" d="m481.77 316.86v-1.3h1.7v-5.82h-1.7v-1.31h4.85v1.31h-1.7v5.82h1.7v1.3z" fill="#ed9366"/><path clip-path="url(#a)" d="m488.5 316.86v-8.43h1.76l2.35 6.81c-.02-.25-.04-.54-.07-.87-.03-.34-.05-.68-.06-1.02-.02-.35-.02-.66-.02-.92v-3.99h1.31v8.43h-1.77l-2.33-6.81c.02.22.04.49.06.8s.04.64.05.97c.02.33.02.64.02.91v4.13h-1.3z" fill="#ed9366"/><path clip-path="url(#a)" d="m497.33 316.86v-7.12h-2.21v-1.31h5.87v1.31h-2.21v7.12z" fill="#ed9366"/><path clip-path="url(#a)" d="m502.54 316.86v-8.43h5.06v1.27h-3.64v2.19h3.23v1.23h-3.23v2.47h3.64v1.27z" fill="#ed9366"/><path clip-path="url(#a)" d="m510.77 312.25h1.23c.4 0 .72-.11.96-.34.23-.23.35-.53.35-.92 0-.4-.12-.71-.35-.94s-.55-.34-.96-.34h-1.23zm-1.43 4.61v-8.43h2.66c.56 0 1.05.1 1.46.31s.73.5.96.87.34.82.34 1.32c0 .56-.14 1.05-.42 1.47s-.65.72-1.12.9l1.65 3.56h-1.58l-1.48-3.35h-1.05v3.35z" fill="#ed9366"/><path clip-path="url(#a)" d="m516.31 316.86v-8.43h5.24v1.34h-3.82v2.26h3.52v1.33h-3.49v3.5z" fill="#ed9366"/><path clip-path="url(#a)" d="m524.92 313.64h1.71l-.5-2.27c-.08-.38-.16-.72-.22-1.02s-.11-.53-.13-.66c-.02.14-.07.36-.12.66-.06.3-.13.64-.22 1.01zm-2.2 3.22 2.12-8.43h1.86l2.13 8.43h-1.47l-.47-2.04h-2.24l-.47 2.04z" fill="#ed9366"/><path clip-path="url(#a)" d="m532.8 316.98c-.54 0-1.01-.1-1.41-.31-.4-.2-.72-.49-.94-.87-.22-.37-.33-.81-.33-1.32v-3.68c0-.51.11-.95.33-1.33.22-.37.53-.66.94-.86.4-.2.87-.31 1.41-.31s1.02.1 1.41.31c.4.21.71.49.93.86s.33.81.33 1.32h-1.45c0-.4-.11-.7-.32-.91s-.52-.32-.91-.32-.7.11-.91.32c-.22.21-.33.51-.33.91v3.68c0 .39.11.69.33.91.22.21.52.32.91.32s.69-.11.91-.32c.21-.21.32-.52.32-.91h1.45c0 .5-.11.94-.33 1.31s-.53.66-.93.87c-.39.23-.86.33-1.41.33z" fill="#ed9366"/><path clip-path="url(#a)" d="m537.19 316.86v-8.43h5.06v1.27h-3.64v2.19h3.23v1.23h-3.23v2.47h3.64v1.27z" fill="#ed9366"/><path clip-path="url(#a)" d="m36.03 289.63h100.11v48.13h-100.11z" fill="#1c1f24"/><path clip-path="url(#a)" d="m36.03 289.63h100.11v48.13h-100.11z" fill="none" stroke="#646464" stroke-width=".75"/><path clip-path="url(#a)" d="m43.34 312.25h1.23c.4 0 .72-.11.96-.34.23-.23.35-.53.35-.92 0-.4-.12-.71-.35-.94s-.55-.34-.96-.34h-1.23zm-1.43 4.61v-8.43h2.66c.56 0 1.05.1 1.46.31s.73.5.96.87c.23.38.34.82.34 1.32 0 .56-.14 1.05-.42 1.47s-.65.72-1.12.9l1.65 3.56h-1.58l-1.48-3.35h-1.05v3.35z" fill="#ed9366"/><path clip-path="url(#a)" d="m48.97 316.86v-8.43h5.06v1.27h-3.64v2.19h3.23v1.23h-3.23v2.47h3.64v1.27z" fill="#ed9366"/><path clip-path="url(#a)" d="m58.4 316.98c-.54 0-1.01-.1-1.42-.31-.4-.2-.72-.49-.94-.87-.22-.37-.33-.81-.33-1.32v-3.68c0-.51.11-.95.33-1.33.22-.37.53-.66.94-.86.4-.2.88-.31 1.42-.31s1.01.1 1.41.31.71.49.93.86.33.81.33 1.32h-1.44c0-.4-.11-.7-.32-.91-.22-.21-.52-.32-.91-.32s-.69.1-.91.32c-.22.21-.33.51-.33.91v3.68c0 .39.11.69.33.91.22.21.52.32.91.32s.69-.11.91-.32.32-.52.32-.91v-.94h-1.44v-1.25h2.88v2.19c0 .5-.11.94-.33 1.32-.22.37-.53.66-.93.87-.4.22-.87.32-1.41.32z" fill="#ed9366"/><path clip-path="url(#a)" d="m62.86 316.86v-1.3h1.69v-5.82h-1.69v-1.31h4.84v1.31h-1.69v5.82h1.69v1.3z" fill="#ed9366"/><path clip-path="url(#a)" d="m72.24 316.98c-.57 0-1.07-.1-1.5-.3s-.76-.49-.99-.86-.35-.82-.35-1.33h1.42c0 .38.13.68.39.9s.6.33 1.03.33c.42 0 .75-.11.99-.33s.36-.51.36-.87c0-.28-.08-.53-.23-.74-.16-.21-.38-.36-.68-.43l-1.13-.29c-.61-.15-1.09-.44-1.44-.87-.35-.42-.53-.93-.53-1.51 0-.48.11-.89.32-1.25.21-.35.51-.63.9-.82s.85-.29 1.37-.29c.53 0 .99.1 1.39.29s.7.47.92.82.33.76.33 1.23h-1.42c0-.33-.11-.6-.33-.79-.22-.2-.52-.3-.88-.3s-.65.1-.87.29-.32.45-.32.77c0 .26.07.47.22.65.15.17.36.29.63.37l1.17.3c.62.15 1.11.46 1.47.92s.54 1.02.54 1.66c0 .5-.11.93-.34 1.3s-.55.66-.96.86c-.42.19-.91.29-1.48.29z" fill="#ed9366"/><path clip-path="url(#a)" d="m78.42 316.86v-7.12h-2.21v-1.31h5.86v1.31h-2.21v7.12z" fill="#ed9366"/><path clip-path="url(#a)" d="m83.62 316.86v-8.43h5.06v1.27h-3.64v2.19h3.23v1.23h-3.23v2.47h3.64v1.27z" fill="#ed9366"/><path clip-path="url(#a)" d="m91.85 312.25h1.23c.4 0 .72-.11.96-.34.23-.23.35-.53.35-.92 0-.4-.12-.71-.35-.94s-.55-.34-.96-.34h-1.23zm-1.42 4.61v-8.43h2.66c.56 0 1.05.1 1.46.31s.73.5.96.87c.23.38.34.82.34 1.32 0 .56-.14 1.05-.42 1.47s-.65.72-1.12.9l1.65 3.56h-1.58l-1.48-3.35h-1.05v3.35z" fill="#ed9366"/><path clip-path="url(#a)" d="m104.32 316.86v-8.43h5.24v1.34h-3.81v2.26h3.51v1.33h-3.49v3.5z" fill="#ed9366"/><path clip-path="url(#a)" d="m111.37 316.86v-1.3h1.69v-5.82h-1.69v-1.31h4.84v1.31h-1.69v5.82h1.69v1.3z" fill="#ed9366"/><path clip-path="url(#a)" d="m118.66 316.86v-8.43h1.44v7.13h3.58v1.3z" fill="#ed9366"/><path clip-path="url(#a)" d="m125.21 316.86v-8.43h5.05v1.27h-3.63v2.19h3.23v1.23h-3.23v2.47h3.63v1.27z" fill="#ed9366"/><path clip-path="url(#a)" d="m37.95 202.99h96.26v48.13h-96.26z" fill="#1c1f24"/><path clip-path="url(#a)" d="m37.95 202.99h96.26v48.13h-96.26z" fill="none" stroke="#646464" stroke-width=".75"/><path clip-path="url(#a)" d="m78.28 227.01h1.71l-.5-2.27c-.08-.38-.16-.72-.22-1.02-.06-.31-.11-.53-.13-.66-.02.14-.07.36-.12.66-.06.3-.13.64-.22 1.01zm-2.2 3.22 2.12-8.43h1.86l2.13 8.43h-1.47l-.47-2.04h-2.24l-.47 2.04z" fill="#ed9366"/><path clip-path="url(#a)" d="m84 230.23v-8.43h1.45v7.13h3.57v1.3z" fill="#ed9366"/><path clip-path="url(#a)" d="m93 230.35c-.83 0-1.47-.23-1.93-.68s-.69-1.07-.69-1.84v-6.03h1.44v6.02c0 .4.1.71.3.93s.49.33.88.33c.38 0 .67-.11.88-.33.2-.22.31-.53.31-.93v-6.02h1.44v6.03c0 .78-.23 1.39-.69 1.84-.47.45-1.11.68-1.94.68z" fill="#ed9366"/><path clip-path="url(#a)" d="m37.95 376.26h96.26v48.13h-96.26z" fill="#1c1f24"/><path clip-path="url(#a)" d="m37.95 376.26h96.26v48.13h-96.26z" fill="none" stroke="#646464" stroke-width=".75"/><path clip-path="url(#a)" d="m54.99 403.61c-.54 0-1.01-.1-1.41-.31-.4-.2-.72-.49-.94-.87s-.33-.81-.33-1.32v-3.68c0-.51.11-.95.33-1.33.22-.37.53-.66.94-.86.4-.2.87-.31 1.41-.31s1.02.1 1.41.31c.4.21.71.49.93.86s.33.81.33 1.32h-1.44c0-.4-.11-.7-.32-.91s-.52-.32-.91-.32-.7.11-.91.32c-.22.21-.33.51-.33.91v3.68c0 .39.11.69.33.91.22.21.52.32.91.32s.69-.11.91-.32c.21-.21.32-.52.32-.91h1.44c0 .5-.11.94-.33 1.31s-.53.66-.93.87c-.4.23-.87.33-1.41.33z" fill="#ed9366"/><path clip-path="url(#a)" d="m60.96 400.28h1.71l-.5-2.27c-.08-.38-.16-.72-.22-1.02-.06-.31-.11-.53-.13-.66-.02.14-.07.36-.12.66-.06.3-.13.64-.22 1.01zm-2.19 3.22 2.12-8.43h1.86l2.13 8.43h-1.47l-.47-2.04h-2.24l-.47 2.04z" fill="#ed9366"/><path clip-path="url(#a)" d="m68.85 403.61c-.54 0-1.01-.1-1.41-.31-.4-.2-.72-.49-.94-.87-.22-.37-.33-.81-.33-1.32v-3.68c0-.51.11-.95.33-1.33.22-.37.53-.66.94-.86.4-.2.87-.31 1.41-.31s1.02.1 1.41.31c.4.21.71.49.93.86s.33.81.33 1.32h-1.44c0-.4-.11-.7-.32-.91s-.52-.32-.91-.32-.7.11-.91.32c-.22.21-.33.51-.33.91v3.68c0 .39.11.69.33.91.22.21.52.32.91.32s.69-.11.91-.32c.21-.21.32-.52.32-.91h1.44c0 .5-.11.94-.33 1.31s-.53.66-.93.87c-.4.23-.87.33-1.41.33z" fill="#ed9366"/><path clip-path="url(#a)" d="m73.11 403.5v-8.44h1.45v3.42h2.25v-3.42h1.45v8.44h-1.45v-3.72h-2.25v3.72z" fill="#ed9366"/><path clip-path="url(#a)" d="m80.17 403.5v-8.44h5.06v1.28h-3.64v2.19h3.23v1.22h-3.23v2.48h3.64v1.27z" fill="#ed9366"/><path clip-path="url(#a)" d="m96.48 403.61c-.83 0-1.47-.23-1.93-.68s-.69-1.07-.69-1.84v-6.03h1.44v6.02c0 .4.1.71.3.93s.49.33.88.33c.38 0 .67-.11.88-.33.2-.22.31-.53.31-.93v-6.02h1.44v6.03c0 .78-.23 1.39-.69 1.84-.47.46-1.11.68-1.94.68z" fill="#ed9366"/><path clip-path="url(#a)" d="m100.78 403.5v-8.43h1.76l2.35 6.81c-.02-.25-.04-.54-.07-.87-.03-.34-.05-.68-.06-1.02s-.02-.66-.02-.92v-3.99h1.31v8.43h-1.76l-2.33-6.81c.02.22.04.49.06.8s.04.64.05.97c.02.33.02.64.02.91v4.13h-1.31z" fill="#ed9366"/><path clip-path="url(#a)" d="m107.92 403.5v-1.31h1.69v-5.82h-1.69v-1.31h4.84v1.31h-1.69v5.82h1.69v1.31z" fill="#ed9366"/><path clip-path="url(#a)" d="m116.55 403.5v-7.13h-2.21v-1.31h5.86v1.31h-2.21v7.13z" fill="#ed9366"/><path clip-path="url(#a)" d="m20.63 482.14h130.91v48.13h-130.91z" fill="#1c1f24"/><path clip-path="url(#a)" d="m20.63 482.14h130.91v48.13h-130.91z" fill="none" stroke="#646464" stroke-width=".75"/><path clip-path="url(#a)" d="m27.8 509.38v-8.43h1.87l.95 3.62.97-3.62h1.89v8.43h-1.34v-3.55c0-.49.01-.99.04-1.51s.06-1.02.1-1.51.08-.94.12-1.33l-1.19 4.24h-1.18l-1.15-4.14c.05.35.1.75.14 1.2s.07.93.1 1.44.04 1.05.04 1.61v3.55z" fill="#ed9366"/><path clip-path="url(#a)" d="m35.12 509.38v-8.43h5.05v1.27h-3.63v2.19h3.23v1.22h-3.23v2.48h3.63v1.27z" fill="#ed9366"/><path clip-path="url(#a)" d="m41.66 509.38v-8.43h1.87l.95 3.62.97-3.62h1.89v8.43h-1.34v-3.55c0-.49.01-.99.04-1.51s.06-1.02.1-1.51.08-.94.12-1.33l-1.19 4.24h-1.18l-1.15-4.14c.05.35.1.75.14 1.2s.07.93.1 1.44.04 1.05.04 1.61v3.55z" fill="#ed9366"/><path clip-path="url(#a)" d="m51.43 508.23c.39 0 .69-.11.89-.32s.3-.52.3-.91v-3.68c0-.4-.1-.7-.3-.91s-.5-.32-.89-.32-.69.11-.89.32-.3.51-.3.91v3.68c0 .39.1.69.31.91s.49.32.88.32zm0 1.27c-.81 0-1.45-.23-1.93-.69-.47-.46-.71-1.1-.71-1.92v-3.45c0-.82.24-1.46.71-1.92s1.12-.69 1.93-.69 1.45.23 1.93.69c.47.46.71 1.1.71 1.92v3.45c0 .82-.24 1.46-.71 1.92-.48.46-1.13.69-1.93.69z" fill="#ed9366"/><path clip-path="url(#a)" d="m57.21 504.76h1.23c.4 0 .72-.11.96-.34.23-.23.35-.53.35-.92 0-.4-.12-.71-.35-.94s-.55-.34-.96-.34h-1.23zm-1.43 4.62v-8.43h2.66c.56 0 1.05.1 1.46.31s.73.5.96.87c.23.38.34.82.34 1.32 0 .56-.14 1.05-.42 1.47s-.65.72-1.12.9l1.65 3.56h-1.58l-1.48-3.35h-1.05v3.35z" fill="#ed9366"/><path clip-path="url(#a)" d="m64.56 509.38v-3.07l-2.47-5.37h1.52l1.3 2.92c.1.23.19.45.26.68.07.22.12.4.14.53.03-.13.08-.31.14-.53.07-.22.15-.45.25-.68l1.28-2.92h1.5l-2.47 5.37v3.07z" fill="#ed9366"/><path clip-path="url(#a)" d="m79.24 509.5c-.54 0-1.01-.1-1.41-.31s-.72-.49-.94-.87c-.22-.37-.33-.81-.33-1.32v-3.68c0-.51.11-.95.33-1.33.22-.37.53-.66.94-.86.4-.2.87-.31 1.41-.31s1.02.1 1.41.31c.4.21.71.49.93.86s.33.81.33 1.32h-1.44c0-.4-.11-.7-.32-.91s-.52-.32-.91-.32-.7.11-.91.32-.33.53-.33.93v3.67c0 .39.11.69.33.91s.52.32.91.32.69-.11.91-.32c.21-.21.32-.52.32-.91h1.44c0 .5-.11.94-.33 1.31s-.53.66-.93.87c-.39.21-.87.32-1.41.32z" fill="#ed9366"/><path clip-path="url(#a)" d="m86.08 508.23c.39 0 .69-.11.89-.32s.3-.52.3-.91v-3.68c0-.4-.1-.7-.3-.91s-.5-.32-.89-.32-.69.11-.89.32-.3.51-.3.91v3.68c0 .39.1.69.31.91.19.21.49.32.88.32zm0 1.27c-.81 0-1.45-.23-1.93-.69-.47-.46-.71-1.1-.71-1.92v-3.45c0-.82.24-1.46.71-1.92s1.12-.69 1.93-.69 1.45.23 1.93.69c.47.46.71 1.1.71 1.92v3.45c0 .82-.24 1.46-.71 1.92-.48.46-1.12.69-1.93.69z" fill="#ed9366"/><path clip-path="url(#a)" d="m90.38 509.38v-8.43h1.76l2.35 6.81c-.02-.25-.04-.54-.07-.87-.03-.34-.05-.68-.06-1.02-.02-.35-.02-.66-.02-.92v-3.99h1.31v8.43h-1.76l-2.33-6.81c.02.22.04.49.06.8s.04.64.05.97c.02.33.02.64.02.91v4.13h-1.31z" fill="#ed9366"/><path clip-path="url(#a)" d="m99.22 509.38v-7.13h-2.21v-1.3h5.86v1.3h-2.21v7.13z" fill="#ed9366"/><path clip-path="url(#a)" d="m105.72 504.76h1.23c.4 0 .72-.11.96-.34.23-.23.35-.53.35-.92 0-.4-.12-.71-.35-.94s-.55-.34-.96-.34h-1.23zm-1.42 4.62v-8.43h2.66c.56 0 1.05.1 1.46.31s.73.5.96.87c.23.38.34.82.34 1.32 0 .56-.14 1.05-.42 1.47s-.65.72-1.12.9l1.65 3.56h-1.58l-1.48-3.35h-1.05v3.35z" fill="#ed9366"/><path clip-path="url(#a)" d="m113.8 508.23c.39 0 .69-.11.89-.32s.3-.52.3-.91v-3.68c0-.4-.1-.7-.3-.91s-.5-.32-.89-.32-.69.11-.89.32-.3.51-.3.91v3.68c0 .39.1.69.31.91s.49.32.88.32zm0 1.27c-.81 0-1.45-.23-1.93-.69-.47-.46-.71-1.1-.71-1.92v-3.45c0-.82.24-1.46.71-1.92s1.12-.69 1.93-.69 1.45.23 1.93.69c.47.46.71 1.1.71 1.92v3.45c0 .82-.24 1.46-.71 1.92s-1.12.69-1.93.69z" fill="#ed9366"/><path clip-path="url(#a)" d="m118.67 509.38v-8.43h1.44v7.13h3.58v1.3z" fill="#ed9366"/><path clip-path="url(#a)" d="m125.6 509.38v-8.43h1.44v7.13h3.58v1.3z" fill="#ed9366"/><path clip-path="url(#a)" d="m132.15 509.38v-8.43h5.05v1.27h-3.63v2.19h3.23v1.22h-3.23v2.48h3.63v1.27z" fill="#ed9366"/><path clip-path="url(#a)" d="m140.38 504.76h1.23c.4 0 .72-.11.96-.34.23-.23.35-.53.35-.92 0-.4-.12-.71-.35-.94s-.55-.34-.96-.34h-1.23zm-1.43 4.62v-8.43h2.66c.56 0 1.05.1 1.46.31s.73.5.96.87c.23.38.34.82.34 1.32 0 .56-.14 1.05-.42 1.47s-.65.72-1.12.9l1.65 3.56h-1.58l-1.48-3.35h-1.05v3.35z" fill="#ed9366"/><path clip-path="url(#a)" d="m218.92 116.36h177.12v48.13h-177.12z" fill="#1c1f24"/><path clip-path="url(#a)" d="m218.92 116.36h177.12v48.13h-177.12z" fill="none" stroke="#646464" stroke-width=".75"/><path clip-path="url(#a)" d="m231.32 143.71c-.54 0-1.01-.1-1.41-.31-.4-.2-.72-.49-.94-.87-.22-.37-.33-.81-.33-1.32v-3.68c0-.51.11-.95.33-1.33.22-.37.53-.66.94-.86.4-.2.87-.31 1.41-.31s1.02.1 1.41.31c.4.21.71.49.93.86s.33.81.33 1.32h-1.44c0-.4-.11-.7-.32-.91s-.52-.32-.91-.32-.7.11-.91.32c-.22.21-.33.51-.33.91v3.68c0 .39.11.69.33.91.22.21.52.32.91.32s.69-.11.91-.32c.21-.21.32-.52.32-.91h1.44c0 .5-.11.94-.33 1.31s-.53.66-.93.87-.87.33-1.41.33z" fill="#ed9366"/><path clip-path="url(#a)" d="m235.71 143.6v-8.43h5.06v1.27h-3.64v2.19h3.23v1.22h-3.23v2.48h3.64v1.27z" fill="#ed9366"/><path clip-path="url(#a)" d="m242.46 143.6v-8.43h1.76l2.35 6.81c-.02-.25-.04-.54-.07-.87-.03-.34-.05-.68-.06-1.02-.02-.35-.02-.66-.02-.92v-3.99h1.31v8.43h-1.76l-2.33-6.81c.02.22.04.49.06.8s.04.64.05.97c.02.33.02.64.02.91v4.13h-1.31z" fill="#ed9366"/><path clip-path="url(#a)" d="m251.3 143.6v-7.13h-2.21v-1.3h5.86v1.3h-2.21v7.13z" fill="#ed9366"/><path clip-path="url(#a)" d="m257.8 138.98h1.23c.4 0 .72-.11.96-.34.23-.23.35-.53.35-.92 0-.4-.12-.71-.35-.94s-.55-.34-.96-.34h-1.23zm-1.42 4.62v-8.43h2.66c.56 0 1.05.1 1.46.31s.73.5.96.87c.23.38.34.82.34 1.32 0 .56-.14 1.05-.42 1.47s-.65.72-1.12.9l1.65 3.56h-1.58l-1.48-3.35h-1.05v3.35z" fill="#ed9366"/><path clip-path="url(#a)" d="m265.02 140.38h1.71l-.5-2.27c-.08-.38-.16-.72-.22-1.02-.06-.31-.11-.53-.13-.66-.02.14-.07.36-.12.66-.06.3-.13.64-.22 1.01zm-2.2 3.22 2.12-8.43h1.86l2.13 8.43h-1.47l-.47-2.04h-2.24l-.47 2.04z" fill="#ed9366"/><path clip-path="url(#a)" d="m270.75 143.6v-8.43h1.44v7.12h3.58v1.31z" fill="#ed9366"/><path clip-path="url(#a)" d="m285.54 139.1h1.36c.4 0 .73-.12.97-.37s.36-.57.36-.96c0-.4-.12-.72-.36-.97s-.57-.37-.97-.37h-1.36zm-1.45 4.5v-8.43h2.81c.56 0 1.06.11 1.47.32s.74.52.97.9c.23.39.35.85.35 1.37s-.12.97-.35 1.36-.56.69-.97.91c-.42.22-.91.32-1.47.32h-1.36v3.24h-1.45z" fill="#ed9366"/><path clip-path="url(#a)" d="m292.46 138.98h1.23c.4 0 .72-.11.96-.34.23-.23.35-.53.35-.92 0-.4-.12-.71-.35-.94s-.55-.34-.96-.34h-1.23zm-1.43 4.62v-8.43h2.66c.56 0 1.05.1 1.46.31s.73.5.96.87c.23.38.34.82.34 1.32 0 .56-.14 1.05-.42 1.47s-.65.72-1.12.9l1.65 3.56h-1.58l-1.48-3.35h-1.05v3.35z" fill="#ed9366"/><path clip-path="url(#a)" d="m300.53 142.45c.39 0 .69-.11.89-.32s.3-.52.3-.91v-3.68c0-.4-.1-.7-.3-.91s-.5-.32-.89-.32-.69.11-.89.32-.3.51-.3.91v3.68c0 .39.1.69.31.91.2.21.5.32.88.32zm0 1.26c-.81 0-1.45-.23-1.93-.69-.47-.46-.71-1.1-.71-1.92v-3.45c0-.82.24-1.46.71-1.92.48-.46 1.12-.69 1.93-.69s1.45.23 1.93.69.71 1.1.71 1.92v3.45c0 .82-.24 1.46-.71 1.92-.48.46-1.12.69-1.93.69z" fill="#ed9366"/><path clip-path="url(#a)" d="m307.56 143.71c-.54 0-1.01-.1-1.41-.31-.4-.2-.72-.49-.94-.87-.22-.37-.33-.81-.33-1.32v-3.68c0-.51.11-.95.33-1.33.22-.37.53-.66.94-.86.4-.2.87-.31 1.41-.31s1.02.1 1.41.31c.4.21.71.49.93.86s.33.81.33 1.32h-1.44c0-.4-.11-.7-.32-.91s-.52-.32-.91-.32-.7.11-.91.32c-.22.21-.33.51-.33.91v3.68c0 .39.11.69.33.91.22.21.52.32.91.32s.69-.11.91-.32c.21-.21.32-.52.32-.91h1.44c0 .5-.11.94-.33 1.31s-.53.66-.93.87c-.4.23-.87.33-1.41.33z" fill="#ed9366"/><path clip-path="url(#a)" d="m311.95 143.6v-8.43h5.05v1.27h-3.63v2.19h3.23v1.22h-3.23v2.48h3.63v1.27z" fill="#ed9366"/><path clip-path="url(#a)" d="m321.36 143.71c-.57 0-1.07-.1-1.5-.3s-.76-.49-.99-.86-.35-.82-.35-1.33h1.42c0 .38.13.68.39.9s.6.33 1.03.33c.42 0 .75-.11.99-.33s.36-.51.36-.87c0-.28-.08-.53-.23-.74-.16-.21-.38-.36-.68-.43l-1.13-.29c-.61-.15-1.09-.44-1.44-.87-.35-.42-.53-.93-.53-1.51 0-.48.11-.89.32-1.25s.51-.63.9-.82.85-.29 1.37-.29c.53 0 .99.1 1.39.29.39.19.7.47.92.82s.33.76.33 1.23h-1.42c0-.33-.11-.6-.33-.79-.22-.2-.52-.3-.88-.3s-.65.1-.87.29c-.21.2-.32.45-.32.77 0 .26.07.47.22.65.15.17.36.29.63.37l1.17.3c.62.15 1.11.46 1.47.92s.54 1.02.54 1.66c0 .5-.11.93-.34 1.3s-.55.66-.96.86c-.43.19-.92.29-1.48.29z" fill="#ed9366"/><path clip-path="url(#a)" d="m328.29 143.71c-.57 0-1.07-.1-1.5-.3s-.76-.49-.99-.86-.35-.82-.35-1.33h1.42c0 .38.13.68.39.9s.6.33 1.03.33c.42 0 .75-.11.99-.33s.36-.51.36-.87c0-.28-.08-.53-.23-.74-.16-.21-.38-.36-.68-.43l-1.13-.29c-.61-.15-1.09-.44-1.44-.87-.35-.42-.53-.93-.53-1.51 0-.48.11-.89.32-1.25.21-.35.51-.63.9-.82s.85-.29 1.37-.29c.53 0 .99.1 1.39.29.39.19.7.47.92.82s.33.76.33 1.23h-1.42c0-.33-.11-.6-.33-.79-.22-.2-.52-.3-.88-.3s-.65.1-.87.29c-.21.2-.32.45-.32.77 0 .26.07.47.22.65.15.17.36.29.63.37l1.17.3c.62.15 1.11.46 1.47.92s.54 1.02.54 1.66c0 .5-.11.93-.34 1.3s-.55.66-.96.86c-.43.19-.92.29-1.48.29z" fill="#ed9366"/><path clip-path="url(#a)" d="m332.77 143.6v-1.31h1.69v-5.82h-1.69v-1.3h4.84v1.3h-1.7v5.82h1.7v1.31z" fill="#ed9366"/><path clip-path="url(#a)" d="m339.49 143.6v-8.43h1.76l2.35 6.81c-.02-.25-.04-.54-.07-.87-.03-.34-.05-.68-.06-1.02-.02-.35-.02-.66-.02-.92v-3.99h1.31v8.43h-1.76l-2.33-6.81c.02.22.04.49.06.8s.04.64.05.97c.02.33.02.64.02.91v4.13h-1.31z" fill="#ed9366"/><path clip-path="url(#a)" d="m349.1 143.71c-.54 0-1.01-.1-1.42-.31-.4-.2-.72-.49-.94-.87-.22-.37-.33-.81-.33-1.32v-3.68c0-.51.11-.95.33-1.33.22-.37.53-.66.94-.86.4-.2.88-.31 1.42-.31s1.01.1 1.41.31.71.49.93.86.33.81.33 1.32h-1.44c0-.4-.11-.7-.32-.91-.22-.21-.52-.32-.91-.32s-.69.1-.91.31-.33.51-.33.91v3.68c0 .39.11.69.33.91.22.21.52.32.91.32s.69-.11.91-.32.32-.52.32-.91v-.94h-1.44v-1.25h2.88v2.19c0 .5-.11.94-.33 1.32-.22.37-.53.66-.93.87-.4.23-.87.33-1.41.33z" fill="#ed9366"/><path clip-path="url(#a)" d="m362.91 143.71c-.83 0-1.47-.23-1.93-.68s-.69-1.07-.69-1.84v-6.03h1.44v6.02c0 .4.1.71.3.93s.49.33.88.33c.38 0 .67-.11.88-.33.2-.22.31-.53.31-.93v-6.02h1.44v6.03c0 .78-.23 1.39-.69 1.84-.47.46-1.11.68-1.94.68z" fill="#ed9366"/><path clip-path="url(#a)" d="m367.21 143.6v-8.43h1.76l2.35 6.81c-.02-.25-.04-.54-.07-.87-.03-.34-.05-.68-.06-1.02-.02-.35-.02-.66-.02-.92v-3.99h1.31v8.43h-1.76l-2.33-6.81c.02.22.04.49.06.8s.04.64.05.97c.02.33.02.64.02.91v4.13h-1.31z" fill="#ed9366"/><path clip-path="url(#a)" d="m374.35 143.6v-1.31h1.69v-5.82h-1.69v-1.3h4.84v1.3h-1.69v5.82h1.69v1.31z" fill="#ed9366"/><path clip-path="url(#a)" d="m382.98 143.6v-7.13h-2.21v-1.3h5.86v1.3h-2.21v7.13z" fill="#ed9366"/><g fill="#bae67e"><path d="m406.52 535.12v-1.25h1.86c.35 0 .62-.09.82-.28.19-.19.29-.44.29-.76v-.4l.02-1.33h-.32l.47-.58c0 .63-.17 1.13-.52 1.49-.34.37-.8.55-1.38.55-.67 0-1.21-.23-1.6-.68-.4-.45-.59-1.07-.59-1.84v-1.28c0-.77.2-1.38.59-1.84.4-.46.93-.68 1.6-.68.58 0 1.04.18 1.38.55s.52.87.52 1.5l-.47-.79h.32v-1.14h1.46v6.5c0 .7-.23 1.25-.69 1.65s-1.09.61-1.88.61zm1.74-3.84c.38 0 .68-.11.89-.34s.32-.54.32-.95v-1.15c0-.41-.11-.73-.32-.95-.21-.23-.51-.34-.89-.34s-.68.11-.89.33-.31.53-.31.92v1.25c0 .39.1.7.31.92.21.2.51.31.89.31z"/><path d="m415.51 533.08c-.56 0-1.05-.11-1.46-.32-.42-.22-.74-.52-.97-.92s-.34-.86-.34-1.4v-1.56c0-.54.11-1 .34-1.4s.55-.7.97-.92.9-.32 1.46-.32c.55 0 1.04.11 1.45.32s.73.52.96.91.34.84.34 1.36v1.2h-4.08v.46c0 .45.12.79.35 1.01s.56.34.98.34c.31 0 .58-.05.8-.16s.35-.27.39-.47h1.49c-.1.57-.4 1.02-.89 1.36s-1.09.51-1.79.51zm1.3-3.9v-.36c0-.46-.11-.81-.33-1.06s-.55-.37-.98-.37-.76.12-.99.38-.34.61-.34 1.06v.23l2.75-.01z"/><path d="m420.02 532.96v-6.6h1.46v1.26h.41l-.44.35c.01-.53.18-.95.5-1.26s.76-.47 1.31-.47c.65 0 1.17.22 1.55.65.39.43.58 1.01.58 1.74v4.33h-1.5v-4.15c0-.41-.1-.72-.31-.94s-.5-.33-.86-.33c-.38 0-.67.11-.88.34s-.32.54-.32.96v4.13h-1.5z"/><path d="m429.91 533.08c-.56 0-1.05-.11-1.46-.32-.42-.22-.74-.52-.97-.92s-.34-.86-.34-1.4v-1.56c0-.54.11-1 .34-1.4s.55-.7.97-.92.9-.32 1.46-.32c.55 0 1.03.11 1.45.32.41.21.73.52.96.91s.34.84.34 1.36v1.2h-4.08v.46c0 .45.12.79.35 1.01.23.23.56.34.98.34.31 0 .58-.05.8-.16s.35-.27.39-.47h1.49c-.1.57-.4 1.02-.89 1.36s-1.09.51-1.79.51zm1.3-3.9v-.36c0-.46-.11-.81-.33-1.06s-.55-.37-.98-.37-.76.12-.99.38c-.23.25-.34.61-.34 1.06v.23l2.75-.01z"/><path d="m434.66 532.96v-6.6h1.46v1.33h.41l-.44.36c0-.56.17-1 .5-1.33.33-.32.79-.49 1.36-.49.67 0 1.2.22 1.57.65.38.43.56 1.04.56 1.81v.62h-1.5v-.55c0-.41-.1-.71-.31-.92s-.5-.31-.89-.31-.7.12-.91.36-.32.58-.32 1.02v4.04h-1.49z"/><path d="m443.56 533.08c-.67 0-1.2-.19-1.59-.57s-.58-.88-.58-1.49c0-.43.1-.8.3-1.12.2-.31.49-.55.86-.73.37-.17.81-.26 1.31-.26h1.61v-.47c0-.32-.1-.56-.29-.74-.2-.17-.49-.26-.87-.26-.35 0-.63.07-.85.2-.21.14-.33.33-.34.58h-1.44c.03-.6.28-1.08.75-1.45.47-.36 1.1-.55 1.89-.55.84 0 1.49.2 1.96.59s.7.94.7 1.66v4.48h-1.46v-1.26h-.24l.26-.22c0 .33-.08.61-.24.85s-.39.42-.68.55-.66.21-1.06.21zm.48-1.22c.44 0 .79-.11 1.04-.32.26-.21.38-.5.38-.86v-.78h-1.54c-.33 0-.59.09-.78.27s-.29.42-.29.71.1.53.31.71c.22.18.51.27.88.27z"/><path d="m452.15 532.96c-.62 0-1.11-.18-1.47-.53-.36-.36-.54-.84-.54-1.45v-3.26h-1.82v-1.36h1.82v-1.86h1.51v1.86h2.63v1.36h-2.63v3.23c0 .19.05.35.16.47s.26.19.45.19h1.96v1.36h-2.07z"/><path d="m458.71 533.08c-.56 0-1.05-.11-1.46-.32-.42-.22-.74-.52-.97-.92s-.34-.86-.34-1.4v-1.56c0-.54.12-1 .34-1.4.23-.4.55-.7.97-.92s.9-.32 1.46-.32c.55 0 1.03.11 1.45.32.41.21.73.52.96.91s.34.84.34 1.36v1.2h-4.08v.46c0 .45.12.79.35 1.01.23.23.56.34.98.34.31 0 .58-.05.8-.16s.35-.27.39-.47h1.49c-.1.57-.4 1.02-.89 1.36s-1.09.51-1.79.51zm1.3-3.9v-.36c0-.46-.11-.81-.33-1.06s-.54-.37-.98-.37c-.43 0-.76.12-.99.38-.23.25-.34.61-.34 1.06v.23l2.75-.01z"/><path d="m465.29 533.08c-.64 0-1.16-.23-1.55-.68-.4-.46-.59-1.07-.59-1.84v-1.79c0-.78.2-1.39.59-1.85.4-.46.91-.68 1.55-.68.59 0 1.06.19 1.4.56s.52.88.52 1.52l-.44-.62h.35l-.05-1.64v-1.85h1.5v8.76h-1.46v-1.33h-.34l.43-.62c0 .64-.17 1.15-.51 1.52-.34.36-.8.54-1.4.54zm.57-1.29c.38 0 .68-.12.89-.35s.32-.56.32-.98v-1.58c0-.42-.11-.75-.32-.98s-.51-.35-.89-.35-.68.1-.89.31-.32.53-.32.96v1.7c0 .42.11.74.32.95s.5.32.89.32z"/><path d="m479.09 532.96v-4.34h-1.81v-1.36h1.81v-1.16c0-.58.19-1.04.58-1.38.38-.34.89-.52 1.52-.52h1.93v1.32h-1.9c-.19 0-.35.05-.46.16-.12.11-.17.25-.17.44v1.14h2.53v1.36h-2.53v4.34z"/><path d="m485.06 532.96v-6.6h1.46v1.33h.41l-.44.36c0-.56.17-1 .5-1.33.33-.32.79-.49 1.36-.49.67 0 1.2.22 1.57.65.38.43.56 1.04.56 1.81v.62h-1.5v-.55c0-.41-.1-.71-.31-.92s-.5-.31-.89-.31-.69.12-.91.36c-.21.24-.32.58-.32 1.02v4.04h-1.49z"/><path d="m494.69 533.07c-.56 0-1.05-.11-1.46-.32-.42-.22-.74-.52-.96-.92s-.34-.86-.34-1.4v-1.54c0-.54.11-1.01.34-1.4.22-.39.54-.7.96-.91.42-.22.9-.32 1.46-.32.57 0 1.06.11 1.47.32.41.22.73.52.95.91s.34.86.34 1.4v1.54c0 .54-.11 1-.34 1.4-.22.4-.54.7-.95.92-.41.21-.9.32-1.47.32zm0-1.31c.4 0 .71-.11.93-.33s.33-.54.33-.95v-1.63c0-.42-.11-.74-.33-.96s-.53-.32-.93-.32c-.39 0-.7.11-.92.32-.22.22-.34.54-.34.96v1.63c0 .42.11.73.34.95.22.22.53.33.92.33z"/><path d="m498.86 532.96v-6.6h1.25v.96h.25l-.23.17c0-.37.1-.67.3-.9s.47-.35.8-.35c.36 0 .65.14.88.41.23.28.34.63.34 1.07l-.29-.43h.41l-.19.19c.01-.38.12-.69.32-.91.21-.22.48-.34.83-.34.41 0 .74.16 1 .47s.39.72.39 1.22v5.03h-1.32v-4.92c0-.22-.05-.39-.15-.51s-.24-.19-.43-.19c-.18 0-.31.06-.4.19-.09.12-.14.29-.14.51v4.92h-1.2v-4.92c0-.22-.04-.39-.14-.51-.09-.12-.23-.19-.4-.19-.18 0-.33.06-.43.19-.1.12-.15.29-.15.51v4.92h-1.3z"/><path d="m514.52 535.12v-1.25h1.86c.35 0 .62-.09.82-.28s.29-.44.29-.76v-.4l.02-1.33h-.32l.47-.58c0 .63-.17 1.13-.52 1.49-.34.37-.8.55-1.38.55-.67 0-1.21-.23-1.6-.68s-.59-1.07-.59-1.84v-1.28c0-.77.2-1.38.59-1.84s.93-.68 1.6-.68c.58 0 1.04.18 1.38.55s.52.87.52 1.5l-.47-.79h.32v-1.14h1.46v6.5c0 .7-.23 1.25-.69 1.65s-1.09.61-1.88.61zm1.74-3.84c.38 0 .68-.11.89-.34s.32-.54.32-.95v-1.15c0-.41-.11-.73-.32-.95s-.51-.34-.89-.34-.68.11-.89.33-.31.53-.31.92v1.25c0 .39.1.7.31.92s.5.31.89.31z"/><path d="m521.06 532.96v-6.6h1.46v1.33h.41l-.45.36c0-.56.17-1 .5-1.33.33-.32.79-.49 1.36-.49.67 0 1.2.22 1.57.65.38.43.56 1.04.56 1.81v.62h-1.5v-.55c0-.41-.1-.71-.31-.92s-.5-.31-.89-.31-.69.12-.91.36c-.21.24-.32.58-.32 1.02v4.04h-1.48z"/><path d="m529.96 533.08c-.67 0-1.2-.19-1.59-.57s-.58-.88-.58-1.49c0-.43.1-.8.3-1.12.2-.31.49-.55.86-.73.37-.17.81-.26 1.31-.26h1.61v-.47c0-.32-.1-.56-.29-.74-.2-.17-.49-.26-.87-.26-.35 0-.63.07-.85.2-.21.14-.33.33-.34.58h-1.44c.03-.6.28-1.08.75-1.45.47-.36 1.1-.55 1.89-.55.84 0 1.49.2 1.96.59s.7.94.7 1.66v4.48h-1.46v-1.26h-.24l.26-.22c0 .33-.08.61-.24.85s-.39.42-.68.55-.66.21-1.06.21zm.48-1.22c.44 0 .79-.11 1.04-.32.26-.21.38-.5.38-.86v-.78h-1.54c-.33 0-.59.09-.78.27s-.29.42-.29.71.1.53.31.71c.22.18.5.27.88.27z"/><path d="m535.22 535.12v-8.76h1.46v1.33h.34l-.43.62c0-.64.17-1.15.52-1.52.34-.37.81-.56 1.39-.56.42 0 .8.11 1.12.32s.58.51.76.88c.18.38.27.82.27 1.32v1.79c0 .5-.09.95-.27 1.33s-.43.68-.75.89-.7.32-1.13.32c-.58 0-1.05-.19-1.39-.56-.34-.38-.52-.88-.52-1.51l.43.64h-.35l.05 1.63v1.85h-1.5zm2.71-3.33c.38 0 .68-.11.89-.32s.32-.53.32-.95v-1.7c0-.43-.11-.75-.32-.96s-.51-.31-.89-.31-.68.12-.89.35-.32.56-.32.98v1.58c0 .42.11.75.32.98s.5.35.89.35z"/><path d="m542.42 532.96v-8.76h1.5v2.16l-.04 1.26h.41l-.44.35c.01-.53.18-.95.5-1.26s.76-.47 1.31-.47c.65 0 1.17.22 1.55.65.39.43.58 1.01.58 1.74v4.33h-1.5v-4.15c0-.41-.1-.72-.31-.94s-.5-.33-.86-.33c-.38 0-.67.11-.88.34-.21.22-.32.54-.32.96v4.13h-1.5z"/><path d="m552.29 533.08c-.34 0-.61-.1-.81-.31-.2-.2-.31-.47-.31-.8s.1-.6.31-.8.47-.31.81-.31.61.1.81.31.31.48.31.8-.1.59-.31.8c-.2.21-.47.31-.81.31z"/><path d="m558.89 533.08c-.64 0-1.16-.23-1.55-.68-.4-.46-.59-1.07-.59-1.84v-1.79c0-.78.2-1.39.59-1.85.4-.46.91-.68 1.55-.68.59 0 1.06.19 1.4.56s.52.88.52 1.52l-.44-.62h.35l-.05-1.64v-1.85h1.5v8.76h-1.46v-1.33h-.34l.43-.62c0 .64-.17 1.15-.51 1.52-.34.36-.81.54-1.4.54zm.57-1.29c.38 0 .68-.12.89-.35s.32-.56.32-.98v-1.58c0-.42-.11-.75-.32-.98s-.51-.35-.89-.35-.68.1-.89.31-.32.53-.32.96v1.7c0 .42.11.74.32.95s.5.32.89.32z"/><path d="m566.69 533.07c-.56 0-1.05-.11-1.46-.32-.42-.22-.74-.52-.96-.92s-.34-.86-.34-1.4v-1.54c0-.54.11-1.01.34-1.4.22-.39.54-.7.96-.91.42-.22.9-.32 1.46-.32.57 0 1.06.11 1.47.32.41.22.73.52.95.91s.34.86.34 1.4v1.54c0 .54-.11 1-.34 1.4s-.54.7-.95.92c-.41.21-.9.32-1.47.32zm0-1.31c.4 0 .71-.11.93-.33s.33-.54.33-.95v-1.63c0-.42-.11-.74-.33-.96s-.53-.32-.93-.32c-.39 0-.7.11-.92.32-.22.22-.34.54-.34.96v1.63c0 .42.11.73.34.95.22.22.53.33.92.33z"/><path d="m574.55 532.96c-.62 0-1.11-.18-1.47-.53-.36-.36-.54-.84-.54-1.45v-3.26h-1.82v-1.36h1.82v-1.86h1.51v1.86h2.63v1.36h-2.63v3.23c0 .19.05.35.16.47s.26.19.45.19h1.96v1.36h-2.07z"/><path d="m293.2 547.48c-.57 0-1.06-.11-1.48-.32s-.75-.51-.98-.9-.35-.85-.35-1.37v-1.66c0-.54.12-1 .35-1.38s.56-.68.98-.89.91-.32 1.48-.32c.82 0 1.48.21 1.98.64s.76 1.01.79 1.75h-1.48c-.02-.34-.15-.61-.38-.8s-.54-.28-.91-.28c-.41 0-.73.11-.96.33s-.35.54-.35.94v1.67c0 .41.12.72.35.95s.55.34.96.34c.38 0 .68-.09.91-.28s.36-.45.38-.8h1.48c-.03.74-.3 1.32-.79 1.75s-1.15.63-1.98.63z"/><path d="m297.62 547.36v-8.76h1.5v2.16l-.04 1.26h.41l-.44.35c.01-.53.18-.95.5-1.26.33-.31.76-.47 1.31-.47.65 0 1.17.22 1.55.65.39.43.58 1.01.58 1.74v4.33h-1.5v-4.15c0-.41-.1-.72-.31-.94s-.5-.33-.86-.33c-.38 0-.67.11-.88.34-.21.22-.32.54-.32.96v4.13h-1.5z"/><path d="m307.51 547.48c-.56 0-1.05-.11-1.46-.32-.42-.22-.74-.52-.97-.92s-.34-.86-.34-1.4v-1.56c0-.54.11-1 .34-1.4s.55-.7.97-.92.9-.32 1.46-.32c.55 0 1.04.11 1.45.32.41.22.73.52.96.91s.34.84.34 1.36v1.2h-4.08v.46c0 .45.12.79.35 1.01.23.23.56.34.98.34.31 0 .58-.05.8-.16s.35-.27.39-.47h1.49c-.1.57-.4 1.02-.89 1.36s-1.09.51-1.79.51zm1.31-3.9v-.36c0-.46-.11-.81-.33-1.06s-.55-.37-.98-.37-.76.13-.99.38-.34.61-.34 1.06v.23l2.75-.01z"/><path d="m314.8 547.48c-.57 0-1.06-.11-1.48-.32s-.75-.51-.98-.9-.35-.85-.35-1.37v-1.66c0-.54.12-1 .35-1.38s.56-.68.98-.89.91-.32 1.48-.32c.82 0 1.48.21 1.98.64s.76 1.01.79 1.75h-1.48c-.02-.34-.15-.61-.38-.8s-.54-.28-.91-.28c-.41 0-.73.11-.96.33s-.35.54-.35.94v1.67c0 .41.12.72.35.95.23.22.55.34.96.34.38 0 .68-.09.91-.28s.36-.45.38-.8h1.48c-.03.74-.3 1.32-.79 1.75s-1.15.63-1.98.63z"/><path d="m319.28 547.36v-8.76h1.5v4.75h1.06l1.57-2.59h1.67l-1.96 3.19 2.03 3.41h-1.71l-1.61-2.74h-1.06v2.74z"/><path d="m334.52 549.52v-1.25h1.86c.35 0 .62-.09.82-.28.19-.19.29-.44.29-.76v-.4l.02-1.33h-.32l.47-.58c0 .63-.17 1.13-.52 1.49-.34.36-.8.55-1.38.55-.67 0-1.21-.23-1.6-.68-.4-.45-.59-1.07-.59-1.84v-1.28c0-.77.2-1.38.59-1.84.4-.46.93-.68 1.6-.68.58 0 1.04.18 1.38.55s.52.87.52 1.5l-.47-.79h.32v-1.14h1.46v6.5c0 .7-.23 1.25-.69 1.65s-1.09.61-1.88.61zm1.74-3.84c.38 0 .68-.11.89-.34s.32-.55.32-.95v-1.15c0-.41-.11-.73-.32-.96s-.51-.34-.89-.34-.68.11-.89.33-.31.53-.31.92v1.25c0 .39.1.7.31.92.21.21.51.32.89.32z"/><path d="m341.06 547.36v-6.6h1.46v1.33h.41l-.44.36c0-.56.17-1 .5-1.33.33-.32.79-.49 1.36-.49.67 0 1.2.22 1.57.65.38.43.56 1.04.56 1.81v.62h-1.5v-.55c0-.41-.1-.72-.31-.92s-.5-.31-.89-.31-.69.12-.91.36c-.21.24-.32.58-.32 1.02v4.04h-1.49z"/><path d="m349.96 547.48c-.67 0-1.2-.19-1.59-.57s-.58-.88-.58-1.49c0-.43.1-.8.3-1.12.2-.31.49-.55.86-.73.37-.17.81-.26 1.31-.26h1.61v-.47c0-.32-.1-.57-.29-.74-.2-.17-.49-.26-.87-.26-.35 0-.63.07-.85.2-.21.14-.33.33-.34.58h-1.44c.03-.6.28-1.08.75-1.45.47-.36 1.1-.55 1.89-.55.84 0 1.49.2 1.96.59.46.39.7.94.7 1.66v4.48h-1.46v-1.26h-.24l.26-.22c0 .33-.08.61-.24.85s-.39.42-.68.55c-.31.15-.66.21-1.06.21zm.48-1.22c.44 0 .79-.11 1.04-.32.26-.22.38-.5.38-.86v-.78h-1.54c-.33 0-.59.09-.78.27s-.29.42-.29.71c0 .3.1.53.31.71.22.18.51.27.88.27z"/><path d="m355.22 549.52v-8.76h1.46v1.33h.34l-.43.62c0-.64.17-1.15.52-1.52.34-.37.81-.56 1.39-.56.42 0 .8.11 1.12.32s.58.51.76.88.27.82.27 1.32v1.79c0 .5-.09.95-.27 1.33s-.43.68-.75.89-.7.32-1.13.32c-.58 0-1.05-.19-1.39-.56s-.52-.88-.52-1.51l.43.64h-.35l.05 1.63v1.85h-1.5zm2.71-3.33c.38 0 .68-.11.89-.32s.32-.53.32-.95v-1.7c0-.43-.11-.75-.32-.96s-.51-.31-.89-.31-.68.12-.89.35-.32.56-.32.98v1.58c0 .42.11.75.32.98s.51.35.89.35z"/><path d="m362.42 547.36v-8.76h1.5v2.16l-.04 1.26h.41l-.44.35c.01-.53.18-.95.5-1.26.33-.31.76-.47 1.31-.47.65 0 1.17.22 1.55.65.39.43.58 1.01.58 1.74v4.33h-1.5v-4.15c0-.41-.1-.72-.31-.94s-.5-.33-.86-.33c-.38 0-.67.11-.88.34-.21.22-.32.54-.32.96v4.13h-1.5z"/><path d="m372.29 547.48c-.34 0-.61-.1-.81-.31s-.31-.47-.31-.8.1-.6.31-.8c.2-.21.47-.31.81-.31s.61.1.81.31.31.48.31.8-.1.59-.31.8c-.2.21-.47.31-.81.31z"/><path d="m379.6 547.48c-.57 0-1.06-.11-1.48-.32s-.75-.51-.98-.9-.35-.85-.35-1.37v-1.66c0-.54.12-1 .35-1.38s.56-.68.98-.89.91-.32 1.48-.32c.82 0 1.48.21 1.98.64s.76 1.01.79 1.75h-1.48c-.02-.34-.15-.61-.38-.8s-.54-.28-.91-.28c-.41 0-.73.11-.96.33s-.35.54-.35.94v1.67c0 .41.12.72.35.95s.55.34.96.34c.38 0 .68-.09.91-.28s.36-.45.38-.8h1.48c-.03.74-.29 1.32-.79 1.75s-1.15.63-1.98.63z"/><path d="m384.02 549.52v-8.76h1.46v1.33h.34l-.43.62c0-.64.17-1.15.52-1.52.34-.37.81-.56 1.39-.56.42 0 .8.11 1.12.32s.58.51.76.88c.18.38.27.82.27 1.32v1.79c0 .5-.09.95-.27 1.33s-.43.68-.75.89-.7.32-1.13.32c-.58 0-1.05-.19-1.39-.56-.34-.38-.52-.88-.52-1.51l.43.64h-.35l.05 1.63v1.85h-1.5zm2.71-3.33c.38 0 .68-.11.89-.32s.32-.53.32-.95v-1.7c0-.43-.11-.75-.32-.96s-.51-.31-.89-.31-.68.12-.89.35-.32.56-.32.98v1.58c0 .42.11.75.32.98s.51.35.89.35z"/><path d="m391.22 549.52v-8.76h1.46v1.33h.34l-.43.62c0-.64.17-1.15.52-1.52.34-.37.81-.56 1.39-.56.42 0 .8.11 1.12.32s.58.51.76.88.27.82.27 1.32v1.79c0 .5-.09.95-.27 1.33s-.43.68-.75.89-.7.32-1.13.32c-.58 0-1.05-.19-1.39-.56-.34-.38-.52-.88-.52-1.51l.43.64h-.35l.05 1.63v1.85h-1.5zm2.71-3.33c.38 0 .68-.11.89-.32s.32-.53.32-.95v-1.7c0-.43-.11-.75-.32-.96s-.51-.31-.89-.31-.68.12-.89.35-.32.56-.32.98v1.58c0 .42.11.75.32.98s.51.35.89.35z"/><path d="m407.09 547.36v-4.34h-1.81v-1.36h1.81v-1.16c0-.58.19-1.04.58-1.38.38-.34.89-.52 1.52-.52h1.93v1.32h-1.9c-.19 0-.35.05-.46.16-.12.11-.17.25-.17.44v1.14h2.53v1.36h-2.53v4.34z"/><path d="m415.49 547.47c-.56 0-1.05-.11-1.46-.32-.42-.22-.74-.52-.96-.92s-.34-.86-.34-1.4v-1.54c0-.54.11-1.01.34-1.4.22-.39.54-.7.96-.91.42-.22.9-.32 1.46-.32.57 0 1.06.11 1.47.32s.73.52.95.91.34.86.34 1.4v1.54c0 .54-.11 1-.34 1.4-.22.4-.54.7-.95.92-.41.21-.9.32-1.47.32zm0-1.31c.4 0 .71-.11.93-.33s.33-.54.33-.95v-1.63c0-.42-.11-.74-.33-.96-.22-.21-.53-.32-.93-.32-.39 0-.7.11-.92.32-.22.22-.34.54-.34.96v1.63c0 .42.11.73.34.95.22.22.53.33.92.33z"/><path d="m420.26 547.36v-6.6h1.46v1.33h.41l-.44.36c0-.56.17-1 .5-1.33.33-.32.79-.49 1.36-.49.67 0 1.2.22 1.57.65.38.43.56 1.04.56 1.81v.62h-1.5v-.55c0-.41-.1-.72-.31-.92-.21-.21-.5-.31-.89-.31s-.69.12-.91.36c-.21.24-.32.58-.32 1.02v4.04h-1.49z"/><path d="m435.32 549.52v-1.25h1.86c.35 0 .62-.09.82-.28.19-.19.29-.44.29-.76v-.4l.02-1.33h-.32l.47-.58c0 .63-.17 1.13-.52 1.49s-.8.55-1.38.55c-.67 0-1.21-.23-1.6-.68-.4-.45-.59-1.07-.59-1.84v-1.28c0-.77.2-1.38.59-1.84.4-.46.93-.68 1.6-.68.58 0 1.04.18 1.38.55s.52.87.52 1.5l-.47-.79h.32v-1.14h1.46v6.5c0 .7-.23 1.25-.69 1.65s-1.09.61-1.88.61zm1.74-3.84c.38 0 .68-.11.89-.34s.32-.55.32-.95v-1.15c0-.41-.11-.73-.32-.96s-.51-.34-.89-.34-.68.11-.89.33-.31.53-.31.92v1.25c0 .39.1.7.31.92.21.21.5.32.89.32z"/><path d="m441.86 547.36v-6.6h1.46v1.33h.41l-.44.36c0-.56.17-1 .5-1.33.33-.32.79-.49 1.36-.49.67 0 1.2.22 1.57.65.38.43.56 1.04.56 1.81v.62h-1.5v-.55c0-.41-.1-.72-.31-.92-.21-.21-.5-.31-.89-.31s-.69.12-.91.36c-.21.24-.32.58-.32 1.02v4.04h-1.49z"/><path d="m450.76 547.48c-.67 0-1.2-.19-1.59-.57s-.58-.88-.58-1.49c0-.43.1-.8.3-1.12.2-.31.49-.55.86-.73s.81-.26 1.31-.26h1.61v-.47c0-.32-.1-.57-.29-.74-.2-.17-.49-.26-.87-.26-.35 0-.63.07-.85.2-.21.14-.33.33-.34.58h-1.44c.03-.6.28-1.08.75-1.45.47-.36 1.1-.55 1.89-.55.84 0 1.49.2 1.96.59.46.39.7.94.7 1.66v4.48h-1.46v-1.26h-.24l.26-.22c0 .33-.08.61-.24.85s-.39.42-.68.55c-.31.15-.66.21-1.06.21zm.48-1.22c.44 0 .79-.11 1.04-.32.26-.22.38-.5.38-.86v-.78h-1.54c-.33 0-.59.09-.78.27s-.29.42-.29.71c0 .3.1.53.31.71.22.18.51.27.88.27z"/><path d="m456.02 549.52v-8.76h1.46v1.33h.34l-.43.62c0-.64.17-1.15.52-1.52.34-.37.81-.56 1.39-.56.42 0 .8.11 1.12.32s.58.51.76.88.27.82.27 1.32v1.79c0 .5-.09.95-.27 1.33s-.43.68-.75.89-.7.32-1.13.32c-.58 0-1.05-.19-1.39-.56s-.52-.88-.52-1.51l.43.64h-.35l.05 1.63v1.85h-1.5zm2.71-3.33c.38 0 .68-.11.89-.32s.32-.53.32-.95v-1.7c0-.43-.11-.75-.32-.96s-.51-.31-.89-.31-.68.12-.89.35-.32.56-.32.98v1.58c0 .42.11.75.32.98s.51.35.89.35z"/><path d="m463.22 547.36v-8.76h1.5v2.16l-.04 1.26h.41l-.44.35c.01-.53.18-.95.5-1.26.33-.31.76-.47 1.31-.47.65 0 1.17.22 1.55.65.39.43.58 1.01.58 1.74v4.33h-1.5v-4.15c0-.41-.1-.72-.31-.94s-.5-.33-.86-.33c-.38 0-.67.11-.88.34-.21.22-.32.54-.32.96v4.13h-1.5z"/><path d="m472.15 547.36-2.22-6.6h1.57l1.27 4.01c.08.24.15.48.22.73.06.24.1.45.12.63.03-.18.08-.39.13-.63s.12-.48.18-.71l1.26-4.02h1.58l-2.21 6.6h-1.9z"/><path d="m477.61 547.36v-1.36h2.26v-3.89h-2.02v-1.36h3.52v5.24h2.03v1.36h-5.79zm2.9-7.7c-.3 0-.54-.08-.72-.23-.18-.16-.26-.37-.26-.63s.09-.47.26-.63c.18-.16.42-.23.72-.23s.54.08.72.23c.18.16.26.37.26.63s-.09.47-.26.63c-.18.15-.42.23-.72.23z"/><path d="m484.83 547.36v-1.36l3.44-3.92h-3.34v-1.32h5.09v1.36l-3.48 3.92h3.61v1.32z"/><path d="m492.77 544.1v-1.39h3.84v1.39z"/><path d="m499.22 549.52v-8.76h1.46v1.33h.34l-.43.62c0-.64.17-1.15.52-1.52.34-.37.81-.56 1.39-.56.42 0 .8.11 1.12.32s.58.51.76.88.27.82.27 1.32v1.79c0 .5-.09.95-.27 1.33s-.43.68-.75.89-.7.32-1.13.32c-.58 0-1.05-.19-1.39-.56s-.52-.88-.52-1.51l.43.64h-.35l.05 1.63v1.85h-1.5zm2.71-3.33c.38 0 .68-.11.89-.32s.32-.53.32-.95v-1.7c0-.43-.11-.75-.32-.96s-.51-.31-.89-.31-.68.12-.89.35-.32.56-.32.98v1.58c0 .42.11.75.32.98s.5.35.89.35z"/><path d="m508.36 547.48c-.67 0-1.2-.19-1.59-.57s-.58-.88-.58-1.49c0-.43.1-.8.3-1.12s.49-.55.86-.73c.37-.17.81-.26 1.31-.26h1.61v-.47c0-.32-.1-.57-.29-.74-.2-.17-.49-.26-.87-.26-.35 0-.63.07-.85.2-.21.14-.33.33-.34.58h-1.44c.03-.6.28-1.08.75-1.45.47-.36 1.1-.55 1.89-.55.84 0 1.49.2 1.96.59.46.39.7.94.7 1.66v4.48h-1.46v-1.26h-.24l.26-.22c0 .33-.08.61-.24.85s-.39.42-.68.55c-.31.15-.66.21-1.06.21zm.48-1.22c.44 0 .79-.11 1.04-.32.26-.22.38-.5.38-.86v-.78h-1.54c-.33 0-.59.09-.78.27s-.29.42-.29.71c0 .3.1.53.31.71.22.18.5.27.88.27z"/><path d="m513.86 547.36v-6.6h1.46v1.33h.41l-.44.36c0-.56.17-1 .5-1.33.33-.32.79-.49 1.36-.49.67 0 1.2.22 1.57.65.38.43.56 1.04.56 1.81v.62h-1.5v-.55c0-.41-.1-.72-.31-.92-.21-.21-.5-.31-.89-.31s-.7.12-.91.36-.32.58-.32 1.02v4.04h-1.49z"/><path d="m523.22 547.47c-.52 0-.97-.08-1.35-.24s-.67-.39-.88-.68c-.21-.3-.31-.65-.31-1.06h1.48c0 .26.09.45.28.59s.45.2.79.2h.53c.36 0 .64-.07.83-.21.2-.14.29-.33.29-.58 0-.24-.07-.42-.2-.54-.14-.12-.34-.2-.62-.23l-1.64-.22c-.53-.06-.93-.27-1.22-.61s-.43-.78-.43-1.31c0-.62.21-1.1.62-1.43s1.02-.5 1.8-.5h.55c.74 0 1.33.17 1.78.5.45.34.68.78.7 1.34h-1.49c-.01-.21-.1-.37-.28-.5s-.41-.19-.71-.19h-.55c-.32 0-.56.07-.73.2s-.25.31-.25.53c0 .2.06.35.19.44s.31.15.55.19l1.55.22c.61.08 1.07.3 1.38.65.31.36.46.83.46 1.42 0 .64-.22 1.13-.65 1.48-.44.35-1.07.52-1.91.52h-.56z"/><path d="m530.71 547.48c-.56 0-1.05-.11-1.46-.32-.42-.22-.74-.52-.96-.92-.23-.4-.34-.86-.34-1.4v-1.56c0-.54.11-1 .34-1.4s.55-.7.96-.92.9-.32 1.46-.32c.55 0 1.03.11 1.45.32s.73.52.96.91.34.84.34 1.36v1.2h-4.08v.46c0 .45.12.79.35 1.01.23.23.56.34.98.34.31 0 .58-.05.8-.16s.35-.27.39-.47h1.49c-.1.57-.4 1.02-.89 1.36-.5.34-1.09.51-1.79.51zm1.3-3.9v-.36c0-.46-.11-.81-.33-1.06s-.55-.37-.98-.37-.76.13-.99.38-.34.61-.34 1.06v.23l2.75-.01z"/><path d="m535.46 547.36v-6.6h1.46v1.33h.41l-.44.36c0-.56.17-1 .5-1.33.33-.32.79-.49 1.36-.49.67 0 1.2.22 1.57.65.38.43.56 1.04.56 1.81v.62h-1.5v-.55c0-.41-.1-.72-.31-.92-.21-.21-.5-.31-.89-.31s-.7.12-.91.36-.32.58-.32 1.02v4.04h-1.49z"/><path d="m549.6 547.36v-1.36h2.26v-3.89h-2.02v-1.36h3.52v5.24h2.03v1.36h-5.79zm2.91-7.7c-.3 0-.54-.08-.72-.23-.18-.16-.26-.37-.26-.63s.09-.47.26-.63c.18-.16.42-.23.72-.23s.54.08.72.23.26.37.26.63-.09.47-.26.63-.42.23-.72.23z"/><path d="m556.46 547.36v-6.6h1.25v.96h.25l-.23.17c0-.37.1-.67.3-.9s.47-.35.8-.35c.36 0 .65.14.88.41.23.28.34.63.34 1.07l-.29-.43h.41l-.19.19c.01-.38.12-.69.32-.91.21-.22.48-.34.83-.34.41 0 .74.16 1 .47s.39.72.39 1.22v5.03h-1.32v-4.92c0-.22-.05-.38-.15-.51-.1-.12-.24-.19-.43-.19-.18 0-.31.06-.4.19-.09.12-.14.29-.14.51v4.92h-1.2v-4.92c0-.22-.05-.38-.14-.51-.09-.12-.23-.19-.4-.19-.18 0-.33.06-.43.19-.1.12-.15.29-.15.51v4.92h-1.3z"/><path d="m564.02 549.52v-8.76h1.46v1.33h.34l-.43.62c0-.64.17-1.15.52-1.52.34-.37.81-.56 1.39-.56.42 0 .8.11 1.12.32s.58.51.76.88.27.82.27 1.32v1.79c0 .5-.09.95-.27 1.33s-.43.68-.75.89-.7.32-1.13.32c-.58 0-1.05-.19-1.39-.56s-.52-.88-.52-1.51l.43.64h-.35l.05 1.63v1.85h-1.5zm2.71-3.33c.38 0 .68-.11.89-.32s.32-.53.32-.95v-1.7c0-.43-.11-.75-.32-.96s-.51-.31-.89-.31-.68.12-.89.35-.32.56-.32.98v1.58c0 .42.11.75.32.98s.5.35.89.35z"/><path d="m574.96 547.36c-.43 0-.81-.09-1.13-.26s-.58-.43-.76-.75-.28-.7-.28-1.12v-5.27h-2.17v-1.36h3.67v6.59c0 .25.07.45.21.59.14.15.33.22.57.22h1.93v1.36z"/></g></svg>