<?xml version="1.0" standalone="no"?>
<!DOCTYPE svg PUBLIC "-//W3C//DTD SVG 1.1//EN" "http://www.w3.org/Graphics/SVG/1.1/DTD/svg11.dtd">
<svg width="588" height="560" version="1.1" xmlns="http://www.w3.org/2000/svg" style="background-color:#1e1f22;">
<polyline points="318,60 318,110 " style="fill:none;stroke:#bae67e;stroke-width:1"/>
<polygon points="318,110 315.5,105 320.5,105" style="fill:#bae67e"/>
<polyline points="308,60 308,90 206,90 206,450 63,450 63,490 " style="fill:none;stroke:#bae67e;stroke-width:1"/>
<polygon points="63,490 60.5,485 65.5,485" style="fill:#bae67e"/>
<polyline points="298,60 298,80 196,80 196,360 73,360 73,380 " style="fill:none;stroke:#bae67e;stroke-width:1"/>
<polygon points="73,380 70.5,375 75.5,375" style="fill:#bae67e"/>
<polyline points="278,60 278,100 68,100 68,200 " style="fill:none;stroke:#bae67e;stroke-width:1"/>
<polygon points="68,200 65.5,195 70.5,195" style="fill:#bae67e"/>
<polyline points="288,60 288,70 186,70 186,260 78,260 78,290 " style="fill:none;stroke:#bae67e;stroke-width:1"/>
<polygon points="78,290 75.5,285 80.5,285" style="fill:#bae67e"/>
<polyline points="308,250 308,260 410,260 410,100 338,100 338,110 " style="fill:none;stroke:#bae67e;stroke-width:1"/>
<polygon points="338,110 335.5,105 340.5,105" style="fill:#bae67e"/>
<polyline points="516,250 516,290 " style="fill:none;stroke:#bae67e;stroke-width:1"/>
<polygon points="516,290 513.5,285 518.5,285" style="fill:#bae67e"/>
<polyline points="506,250 506,270 430,270 430,470 73,470 73,490 " style="fill:none;stroke:#bae67e;stroke-width:1"/>
<polygon points="73,490 70.5,485 75.5,485" style="fill:#bae67e"/>
<polyline points="501,430 501,440 440,440 440,280 496,280 496,290 " style="fill:none;stroke:#bae67e;stroke-width:1"/>
<polygon points="496,290 493.5,285 498.5,285" style="fill:#bae67e"/>
<polyline points="511,430 511,480 93,480 93,490 " style="fill:none;stroke:#bae67e;stroke-width:1"/>
<polygon points="93,490 90.5,485 95.5,485" style="fill:#bae67e"/>
<polyline points="516,340 516,360 578,360 578,90 328,90 328,110 " style="fill:none;stroke:#bae67e;stroke-width:1"/>
<polygon points="328,110 325.5,105 330.5,105" style="fill:#bae67e"/>
<polyline points="496,340 496,370 410,370 410,460 83,460 83,490 " style="fill:none;stroke:#bae67e;stroke-width:1"/>
<polygon points="83,490 80.5,485 85.5,485" style="fill:#bae67e"/>
<polyline points="506,340 506,380 " style="fill:none;stroke:#bae67e;stroke-width:1"/>
<polygon points="506,380 503.5,375 508.5,375" style="fill:#bae67e"/>
<polyline points="526,340 526,350 568,350 568,190 511,190 511,200 " style="fill:none;stroke:#bae67e;stroke-width:1"/>
<polygon points="511,200 508.5,195 513.5,195" style="fill:#bae67e"/>
<polyline points="63,340 63,380 " style="fill:none;stroke:#bae67e;stroke-width:1"/>
<polygon points="63,380 60.5,375 65.5,375" style="fill:#bae67e"/>
<polyline points="93,340 93,350 176,350 176,190 78,190 78,200 " style="fill:none;stroke:#bae67e;stroke-width:1"/>
<polygon points="78,200 75.5,195 80.5,195" style="fill:#bae67e"/>
<polyline points="68,250 68,290 " style="fill:none;stroke:#bae67e;stroke-width:1"/>
<polygon points="68,290 65.5,285 70.5,285" style="fill:#bae67e"/>
<polyline points="53,430 53,490 " style="fill:none;stroke:#bae67e;stroke-width:1"/>
<polygon points="53,490 50.5,485 55.5,485" style="fill:#bae67e"/>
<polyline points="103,430 103,440 166,440 166,280 88,280 88,290 " style="fill:none;stroke:#bae67e;stroke-width:1"/>
<polygon points="88,290 85.5,285 90.5,285" style="fill:#bae67e"/>
<polyline points="78,540 78,550 156,550 156,370 83,370 83,380 " style="fill:none;stroke:#bae67e;stroke-width:1"/>
<polygon points="83,380 80.5,375 85.5,375" style="fill:#bae67e"/>
<polyline points="293,160 293,180 88,180 88,200 " style="fill:none;stroke:#bae67e;stroke-width:1"/>
<polygon points="88,200 85.5,195 90.5,195" style="fill:#bae67e"/>
<polyline points="303,160 303,200 " style="fill:none;stroke:#bae67e;stroke-width:1"/>
<polygon points="303,200 300.5,195 305.5,195" style="fill:#bae67e"/>
<polyline points="323,160 323,190 501,190 501,200 " style="fill:none;stroke:#bae67e;stroke-width:1"/>
<polygon points="501,200 498.5,195 503.5,195" style="fill:#bae67e"/>
<polyline points="313,160 313,180 420,180 420,350 486,350 486,380 " style="fill:none;stroke:#bae67e;stroke-width:1"/>
<polygon points="486,380 483.5,375 488.5,375" style="fill:#bae67e"/>
<rect x="248" y="10" width="120" height="50" style="fill:#1c1f24;stroke:#646464;stroke-width:1"/>
<text x="308" y="35" text-anchor="middle" alignment-baseline="middle" font-size="12" fill="#ed9366" font-family="Jetbrains Mono" font-weight="bold">CLOCK GENERATOR</text>
<rect x="228" y="200" width="160" height="50" style="fill:#1c1f24;stroke:#646464;stroke-width:1"/>
<text x="308" y="225" text-anchor="middle" alignment-baseline="middle" font-size="12" fill="#ed9366" font-family="Jetbrains Mono" font-weight="bold">INTERRUPT CONTROLLER</text>
<rect x="456" y="200" width="100" height="50" style="fill:#1c1f24;stroke:#646464;stroke-width:1"/>
<text x="506" y="225" text-anchor="middle" alignment-baseline="middle" font-size="12" fill="#ed9366" font-family="Jetbrains Mono" font-weight="bold">DMA ENGINE</text>
<rect x="450" y="380" width="112" height="50" style="fill:#1c1f24;stroke:#646464;stroke-width:1"/>
<text x="506" y="405" text-anchor="middle" alignment-baseline="middle" font-size="12" fill="#ed9366" font-family="Jetbrains Mono" font-weight="bold">I/O CONTROLLER</text>
<rect x="454" y="290" width="104" height="50" style="fill:#1c1f24;stroke:#646464;stroke-width:1"/>
<text x="506" y="315" text-anchor="middle" alignment-baseline="middle" font-size="12" fill="#ed9366" font-family="Jetbrains Mono" font-weight="bold">BUS INTERFACE</text>
<rect x="26" y="290" width="104" height="50" style="fill:#1c1f24;stroke:#646464;stroke-width:1"/>
<text x="78" y="315" text-anchor="middle" alignment-baseline="middle" font-size="12" fill="#ed9366" font-family="Jetbrains Mono" font-weight="bold">REGISTER FILE</text>
<rect x="28" y="200" width="100" height="50" style="fill:#1c1f24;stroke:#646464;stroke-width:1"/>
<text x="78" y="225" text-anchor="middle" alignment-baseline="middle" font-size="12" fill="#ed9366" font-family="Jetbrains Mono" font-weight="bold">ALU</text>
<rect x="28" y="380" width="100" height="50" style="fill:#1c1f24;stroke:#646464;stroke-width:1"/>
<text x="78" y="405" text-anchor="middle" alignment-baseline="middle" font-size="12" fill="#ed9366" font-family="Jetbrains Mono" font-weight="bold">CACHE UNIT</text>
<rect x="10" y="490" width="136" height="50" style="fill:#1c1f24;stroke:#646464;stroke-width:1"/>
<text x="78" y="515" text-anchor="middle" alignment-baseline="middle" font-size="12" fill="#ed9366" font-family="Jetbrains Mono" font-weight="bold">MEMORY CONTROLLER</text>
<rect x="216" y="110" width="184" height="50" style="fill:#1c1f24;stroke:#646464;stroke-width:1"/>
<text x="308" y="135" text-anchor="middle" alignment-baseline="middle" font-size="12" fill="#ed9366" font-family="Jetbrains Mono" font-weight="bold">CENTRAL PROCESSING UNIT</text>
</svg>
